<?xml version="1.0" encoding="UTF-8" standalone="no"?>
<svg
   xmlns:dc="http://purl.org/dc/elements/1.1/"
   xmlns:cc="http://creativecommons.org/ns#"
   xmlns:rdf="http://www.w3.org/1999/02/22-rdf-syntax-ns#"
   xmlns:svg="http://www.w3.org/2000/svg"
   xmlns="http://www.w3.org/2000/svg"
   viewBox="0 0 1122.5197 793.70081"
   height="793.70081"
   width="1122.5197"
   xml:space="preserve"
   id="svg2"
   version="1.1"><metadata
     id="metadata8"><rdf:RDF><cc:Work
         rdf:about=""><dc:format>image/svg+xml</dc:format><dc:type
           rdf:resource="http://purl.org/dc/dcmitype/StillImage" /></cc:Work></rdf:RDF></metadata><defs
     id="defs6"><clipPath
       id="clipPath18"
       clipPathUnits="userSpaceOnUse"><path
         id="path16"
         d="M 0,0 H 23385.827 V 16535.433 H 0 V 0" /></clipPath></defs><g
     transform="matrix(0.048,0,0,-0.048,0,793.7008)"
     id="g10"><g
       id="g12"><g
         clip-path="url(#clipPath18)"
         id="g14"><g
           id="g20"><g
             id="g22"><g
               id="g24"><path
                 id="path26"
                 style="fill:#006edd;fill-opacity:1;fill-rule:evenodd;stroke:none"
                 d="m 1087.4324,8746.4961 2146.677,-560.7832 3420.0317,893.4258 -10.4897,31.5517 -10.8535,31.4278 -11.2149,31.3017 -11.5757,31.169 -11.9345,31.0341 -12.2915,30.8946 -12.6475,30.75 -13.0015,30.6025 -13.353,30.4502 -13.7041,30.294 -14.0523,30.1337 -14.3994,29.9708 -14.7436,29.8017 -15.0869,29.6299 -15.4278,29.4531 -15.7666,29.2744 -16.103,29.0899 -16.438,28.9013 -16.77,28.711 -17.1001,28.5156 -17.4282,28.3154 -17.7534,28.1133 -18.0767,27.9063 -18.3975,27.6963 -18.7158,27.4824 -19.0317,27.2636 -19.3447,27.043 -19.6558,26.8174 -19.9634,26.5889 -20.2695,26.3574 -20.5718,26.1221 -20.8721,25.8822 -21.1689,25.639 -21.4634,25.395 -21.7554,25.144 -22.0434,24.892 -22.3296,24.637 -22.6118,24.376 -22.8921,24.114 -23.1685,23.849 -23.4424,23.58 -23.7128,23.307 -23.98,23.032 -24.2442,22.754 -24.5048,22.474 -24.7627,22.188 -25.0171,21.902 -25.2681,21.612 -25.5156,21.318 -25.7603,21.023 -26.0005,20.725 -26.2382,20.422 -26.4722,20.118 -26.7022,19.813 -26.9292,19.503 -27.1528,19.19 -27.3721,18.876 -27.5879,18.56 -27.8003,18.239 -28.0087,17.917 -28.2134,17.594 -28.4151,17.267 -28.6123,16.937 -28.8056,16.607 -28.9951,16.272 -29.1812,15.937 -29.3628,15.6 -29.5415,15.26 -29.7148,14.918 -29.8853,14.574 -30.0517,14.228 -30.2134,13.881 -30.3716,13.531 -30.5259,13.18 -30.6758,12.826 -30.8222,12.473 -30.9634,12.115 -31.1016,11.758 -31.2348,11.398 -31.3643,11.037 -31.4897,10.675 -31.6104,10.309 -31.7275,9.945 -31.8404,9.579 -31.9487,9.21 -32.0522,8.84 -32.1529,8.471 -32.248,8.099 -32.3394,7.726 -32.4262,7.354 -32.5093,6.977 -32.5874,6.603 -32.6616,6.226 -32.731,5.85 -32.7964,5.471 -32.8574,5.092 -32.9136,4.712 -32.9663,4.333 -33.0137,3.953 -33.0571,3.571 -33.0967,3.189 -33.1308,2.808 -33.1607,2.425 -33.187,2.042 -33.2082,1.659 -33.2251,1.276 -33.2376,0.893 -33.2456,0.509 -33.2495,0.125 -33.2485,-0.258 -33.2435,-0.642 -33.2338,-1.025 -33.2198,-1.409 -33.2011,-1.792 -33.1785,-2.174 -33.1511,-2.558 -33.1194,-2.939 -33.0833,-3.323 -33.0427,-3.703 -32.9978,-4.084 -32.9485,-4.463 -32.8948,-4.845 -32.8366,-5.224 -32.7744,-5.601 -32.7073,-5.981 -32.6365,-6.356 -32.5608,-6.733 -32.4809,-7.108 -32.3968,-7.483 -32.3081,-7.855 -32.2155,-8.227 -32.1185,-8.599 -32.017,-8.97 -31.9117,-9.337 -31.8015,-9.706 -31.6875,-10.071 -31.5693,-10.437 -31.4468,-10.8 -31.3201,-11.162 -31.1889,-11.522 -31.0542,-11.882 -30.9151,-12.239 -30.7717,-12.595 -30.6245,-12.949 -30.4729,-13.302 -30.3174,-13.652 -30.1579,-14.001 -29.9944,-14.349 -29.8267,-14.693 -29.6555,-15.037 -29.4797,-15.377 -29.3006,-15.717 -29.1172,-16.054 -28.9301,-16.388 -28.7391,-16.722 -28.5441,-17.052 -28.3457,-17.38 -28.1434,-17.705 -27.937,-18.03 -27.727,-18.35 -27.5137,-18.67 -27.2964,-18.984 -27.0757,-19.3 -26.851,-19.609 -26.6231,-19.919 -26.3913,-20.225 -26.1565,-20.527 -25.9178,-20.828 -25.6757,-21.125 -25.4305,-21.421 -25.1816,-21.712 -24.9293,-22.001 -24.6739,-22.288 -24.4151,-22.57 -24.1531,-22.852 -23.8878,-23.128 -23.6194,-23.402 -23.3478,-23.673 -23.0731,-23.94 -22.7954,-24.207 -22.5146,-24.466 -22.2309,-24.725 -21.9441,-24.98 -21.6544,-25.231 -21.3619,-25.479 -21.0666,-25.725 -20.7683,-25.9658 -20.4674,-26.2031 -20.1637,-26.4385 -19.8573,-26.668 -19.5483,-26.8965 -19.2368,-27.1201 -18.9225,-27.3398 -18.606,-27.5557 -18.2866,-27.7695 -17.9651,-27.9785 -17.6412,-28.1836 -17.3147,-28.3858 -16.9862,-28.583 -16.6553,-28.7773 -16.322,-28.9678 -15.9868,-29.1543 -15.6494,-29.3359 -15.31,-29.5157 -14.9684,-29.6894 -14.6248,-29.8604 -14.2793,-30.0273 -13.932,-30.1904 -13.5827,-30.3487 -13.2317,-30.5029 -12.8789,-30.6543 -12.5244,-30.8008 -12.1681,-30.9433 -11.8104,-31.0811 -11.4509,-31.2158 -11.0901,-31.3457 -10.7278,-31.4707 -10.3639,-31.5938 -9.9987,-31.7099 -9.6322,-31.8243 -9.2644,-31.9326 -8.8954,-32.0381 -8.5251,-32.1377 -8.1538,-32.2343 -7.7814,-32.3262 -7.4078,-32.4141 -7.0335,-32.497 -6.6579,-32.5762 m 5708.6936,-560.7832 -0.2144,35.1641 -0.6435,35.1591 -1.0728,35.1485 -1.5015,35.1328 -1.9296,35.1123 -2.3584,35.0849 -2.7862,35.0547 -3.2133,35.0176 -3.6407,34.9756 -4.0674,34.9287 -4.4931,34.877 -4.918,34.8193 -1484.5972,-748.6631 -528.8955,-2429.3081 31.6407,9.8096 31.5253,10.1723 31.4068,10.5342 31.2837,10.8946 31.1562,11.2534 31.0249,11.6108 30.8897,11.9663 30.7495,12.3208 30.6064,12.6738 30.458,13.0245 30.3072,13.3735 30.1509,13.7212 29.9912,14.0669 29.8276,14.4106 29.6602,14.7525 29.4882,15.0927 29.313,15.4302 29.1338,15.7666 28.9507,16.1001 28.7637,16.4321 28.5727,16.7613 28.378,17.0888 28.1801,17.4141 27.9781,17.7363 27.7719,18.0572 27.563,18.375 27.3496,18.6909 27.1333,19.0034 26.9131,19.3145 26.689,19.6225 26.4619,19.9282 26.231,20.2305 25.9965,20.5313 25.7593,20.8286 25.5181,21.123 25.2734,21.4151 25.0254,21.7041 24.7744,21.9907 24.52,22.2734 24.2627,22.5542 24.0015,22.8316 23.7378,23.1059 23.4702,23.377 23.2002,23.6455 22.9268,23.9106 22.6503,24.1724 22.3711,24.4311 22.0889,24.687 21.8037,24.939 21.5156,25.188 21.2242,25.4336 20.9311,25.6763 20.6343,25.9145 20.335,26.1504 20.0332,26.3823 19.7285,26.6109 19.4214,26.8359 19.1113,27.0571 18.7993,27.2754 18.4849,27.4893 18.1675,27.7002 17.8476,27.9072 17.5259,28.1104 17.2016,28.31 16.875,28.5064 16.5459,28.6977 16.2154,28.8862 15.8823,29.0708 15.5469,29.2515 15.2099,29.4282 14.8706,29.6011 14.5289,29.77 14.186,29.9351 13.8413,30.0962 13.4941,30.2529 13.1455,30.4067 12.7955,30.5552 12.4428,30.7007 12.0894,30.8413 11.7344,30.9785 11.3774,31.1114 11.0186,31.2397 10.6591,31.3648 10.2979,31.4848 9.935,31.6016 9.5718,31.7134 9.2061,31.8212 8.8398,31.9253 8.4722,32.0245 8.104,32.1196 7.7339,32.2109 7.3628,32.2979 6.9917,32.3799 6.6186,32.4584 6.2451,32.5323 5.8711,32.602 5.4956,32.6675 5.1197,32.728 4.7436,32.7852 4.3662,32.8369 3.9883,32.8857 3.6104,32.9288 3.2314,32.9682 2.8521,33.0034 2.4731,33.0337 2.0928,33.0606 1.7129,33.082 1.332,33.0991 0.9521,33.1128 0.5708,33.1216 0.1905,33.1255 m -2881.8906,-1017.2734 -680.126,-342.9791 -680.1262,342.9791 v -1523.397 l 29.8278,-15.7456 30.01,-15.3955 30.1883,-15.0435 30.3623,-14.689 30.532,-14.3325 30.6977,-13.9741 30.8591,-13.6143 31.0167,-13.2519 31.1691,-12.8877 31.3182,-12.5225 31.4624,-12.1547 31.6025,-11.7862 31.7385,-11.415 31.8697,-11.043 31.9968,-10.6694 32.1196,-10.294 32.2378,-9.9174 32.3516,-9.5396 32.4609,-9.1602 32.5662,-8.7797 32.6665,-8.398 32.7627,-8.0151 32.8542,-7.6309 32.9412,-7.2461 33.0237,-6.8598 33.1018,-6.4732 33.1753,-6.0849 33.2443,-5.6968 33.3086,-5.3067 33.3684,-4.917 33.4239,-4.5258 33.4743,-4.1348 33.5205,-3.7422 33.5621,-3.3501 33.5988,-2.9565 33.6314,-2.5635 33.6587,-2.1699 33.6821,-1.7754 33.7004,-1.3814 33.7144,-0.9868 33.7236,-0.5918 33.7281,-0.1977 v 1864.6172 m -2726.7067,689.0849 -143.8212,72.5274 3.2072,-33.7613 3.6043,-33.7207 4.0008,-33.6758 4.3968,-33.6269 4.7923,-33.5723 5.1869,-33.5136 5.581,-33.4507 5.9741,-33.3824 6.3666,-33.31 6.7582,-33.2329 7.1487,-33.1504 7.5383,-33.0645 7.9269,-32.9736 8.3143,-32.8779 8.7007,-32.7779 9.0858,-32.6728 9.4696,-32.564 9.8522,-32.4502 10.2333,-32.332 10.613,-32.2095 10.9913,-32.082 11.3682,-31.9507 11.7433,-31.8149 12.1169,-31.6744 12.4888,-31.5292 12.8589,-31.3804 13.2273,-31.2271 13.5937,-31.0693 13.9585,-30.9067 14.3213,-30.7408 14.6819,-30.5698 15.0406,-30.395 15.3974,-30.2163 15.7518,-30.0327 16.1041,-29.8452 16.4541,-29.6534 16.802,-29.458 17.1476,-29.2583 -248.9775,1143.5962" /></g></g></g><g
           id="g28"><g
             id="g30"><g
               id="g32"><path
                 id="path34"
                 style="fill:#808080;fill-opacity:1;fill-rule:evenodd;stroke:none"
                 d="m 3234.1094,8185.7129 -2146.677,560.7832 -6.2725,-32.6006 -5.8965,-32.6709 -5.5197,-32.7373 -5.1423,-32.7978 -4.764,-32.8555 -4.3854,-32.9082 -4.0058,-32.9561 -3.626,-33 -3.2456,-33.04 -2.8648,-33.0752 -2.4836,-33.1055 -2.1021,-33.1328 -1.7202,-33.1543 -1.3382,-33.1719 -0.956,-33.1845 -0.5736,-33.1944 -0.1913,-33.1982 0.2321,-36.5698 0.696,-36.5645 1.1601,-36.5527 1.6238,-36.5347 2.0872,-36.5112 2.5503,-36.482 3.0132,-36.4462 143.8212,-72.5274 248.9775,-1143.5962 17.1764,-28.5395 17.505,-28.3389 17.8316,-28.1348 18.1554,-27.9262 18.477,-27.7154 18.7962,-27.4995 19.1126,-27.2802 19.4268,-27.0577 19.7381,-26.8315 20.047,-26.6016 20.3532,-26.3676 20.6565,-26.1314 20.9571,-25.8901 21.255,-25.647 21.55,-25.3989 21.8421,-25.1485 22.1313,-24.894 22.4176,-24.6372 22.7008,-24.376 22.981,-24.1118 23.2582,-23.8452 23.5322,-23.5742 23.8031,-23.3008 24.071,-23.0244 24.3353,-22.7442 24.5967,-22.4619 24.8545,-22.1758 25.1092,-21.8872 25.3605,-21.5952 25.6086,-21.3008 25.8528,-21.0034 26.094,-20.7036 26.3316,-20.3999 26.5654,-20.0947 26.7961,-19.7862 27.0227,-19.4751 27.2464,-19.1616 27.4658,-18.8457 27.6819,-18.5264 27.894,-18.2055 28.1028,-17.8819 28.3074,-17.5556 28.5085,-17.2276 28.7056,-16.8969 28.8992,-16.564 29.0886,-16.2285 29.2742,-15.8916 v 1523.397 l 680.1262,-342.9791 v 1360.2525" /></g></g></g><g
           id="g36"><g
             id="g38"><g
               id="g40"><path
                 id="path42"
                 style="fill:#ff7f00;fill-opacity:1;fill-rule:evenodd;stroke:none"
                 d="m 12661.427,7188.6279 h 1071.962 l 557.186,2074.0117 -105.681,-2074.0117 h 760.277 l 995.483,2122.5606 -567.281,-2122.5606 h 1071.961 l 842.441,3144.0311 h -1595.562 l -675.209,-1468.1209 40.146,799.7236 2.667,37.6612 2.707,40.4941 5.429,87.5303 10.24,187.5157 4.416,92.152 3.687,85.862 1.508,39.347 1.252,36.307 0.969,32.774 0.665,28.754 h -1586.822 l -842.441,-3144.0311 m -3131.3108,549.2505 1.6231,52.3032 2.2412,29.2046 2.0703,18.6075 3.0459,22.7207 4.2773,27.9169 5.7656,34.1822 7.4834,41.0039 9.3956,47.7153 11.498,54.272 13.7949,60.6743 16.2832,66.9214 18.9619,73.0146 250.2872,934.0821 19.8369,71.6992 19.7851,67.248 19.5586,62.7735 19.1602,58.2734 18.5869,53.749 17.8408,49.1993 16.9217,44.625 15.829,40.0263 14.563,35.4024 13.158,30.8095 11.832,26.5938 10.664,22.8877 9.658,19.6885 8.811,16.999 15.724,27.9648 28.415,45.71 15.909,23.1582 19.707,24.8105 25.549,27.3506 15.605,14.9063 17.815,15.8633 41.702,34.1036 47.564,35.654 50.714,35.247 51.15,32.884 49.081,28.748 46.522,24.644 44.615,21.593 43.377,19.614 86.862,37.392 23.976,9.511 26.162,9.693 29.013,9.931 32.528,10.226 36.71,10.574 41.557,10.979 47.068,11.441 52.991,11.845 58.665,11.91 63.982,11.584 68.941,10.869 73.543,9.765 77.788,8.273 81.675,6.39 85.205,4.121 88.379,1.458 86.378,-1.267 82.182,-3.578 77.79,-5.551 73.204,-7.185 68.425,-8.483 63.449,-9.44 58.281,-10.062 52.918,-10.344 47.36,-10.289 41.696,-9.936 36.458,-9.536 31.852,-9.185 27.878,-8.882 24.538,-8.626 41.579,-16.679 70.376,-32.493 70.146,-36.302 36.131,-22.172 37.2,-26.258 37.791,-30.412 36.585,-32.91 33.445,-33.572 28.373,-32.398 21.586,-29.5508 15.226,-26.581 10.502,-24.3741 7.431,-22.9394 11.688,-45.3604 4.904,-27.1552 1.954,-16.2198 1.508,-18.5742 0.979,-21.376 0.368,-24.623 -0.331,-28.3145 -1.147,-32.3212 -2.172,-36.2969 -3.421,-40.1885 -4.894,-43.9951 -6.591,-47.7139 -8.512,-51.3496 -10.656,-54.8984 -13.025,-58.3633 -15.619,-61.7412 -36.423,-135.9365 h -1226.347 l 76.49,285.4677 12.545,48.2725 10.621,43.7021 8.86,39.295 7.26,35.0507 5.827,30.9698 4.554,27.0517 3.447,23.2969 2.5,19.7041 1.707,16.3203 1.023,13.3203 0.436,10.7481 -0.05,8.6054 -1.181,12.4961 -1.963,9.0674 -6.32,17.3467 -7.165,9.3369 -11.969,10.1328 -18.288,10.8418 -25.772,10.0449 -16.03,4.1426 -18.304,3.2471 -20.716,2.1182 -23.261,0.7578 -39.885,-2.4649 -34.31,-6.334 -28.526,-8.6103 -22.529,-9.293 -16.617,-8.6855 -11.962,-8.003 -16.167,-14.8681 -7.212,-7.7901 -8.188,-10.8408 -10.14,-16.9385 -6.109,-11.7099 -6.961,-14.3779 -7.903,-17.3887 -8.78,-20.5928 -9.56,-23.9492 -10.242,-27.46 -10.825,-31.123 -11.311,-34.9414 -11.697,-38.9121 -11.986,-43.0371 -404.31,-1508.9019 -9.728,-38.0068 -8.027,-34.6973 -6.483,-31.4683 -5.104,-28.3208 -3.882,-25.2544 -2.825,-22.2685 -1.925,-19.3643 -1.19,-16.541 -0.6,-13.8423 -0.1,-11.4428 1.031,-17.0586 2.182,-11.5743 2.758,-8.8315 7.738,-17.0986 7.676,-9.2032 12.245,-9.9887 18.218,-10.6865 25.118,-9.9014 15.4,-4.0835 17.429,-3.2007 19.558,-2.0884 21.79,-0.7466 24.349,0.8443 22.774,2.3608 40.668,8.2339 33.918,11.1929 26.868,12.0805 19.874,11.2915 14.363,10.4039 19.539,19.3286 8.704,9.9448 9.659,12.8125 11.573,18.5474 6.802,12.3198 7.638,14.8296 8.551,17.6474 9.358,20.5772 10.02,23.5698 10.533,26.625 10.899,29.7432 11.117,32.9233 11.19,36.166 11.112,39.4717 99.906,372.8565 h -247.599 l 128.005,477.7216 h 1436.078 l -452.181,-1687.5625 h -770.654 l -53.063,225.2671 -63.161,-51.1562 -63.653,-44.045 -30.814,-19.2666 -29.501,-17.3823 -27.712,-15.4619 -25.44,-13.5063 -22.829,-11.5625 -20.425,-9.8199 -18.363,-8.3266 -16.646,-7.0821 -29.511,-11.4257 -26.765,-9.4351 -26.949,-9.1504 -30.812,-9.4346 -18.061,-4.913 -20.476,-5.0909 -23.372,-5.3042 -26.751,-5.5527 -30.476,-5.79 -34,-5.8257 -37.184,-5.6123 -40.027,-5.1504 -42.533,-4.4385 -44.7,-3.479 -94.539,-3.0815 -71.097,1.7197 -67.936,4.7148 -64.036,7.042 -59.401,8.7017 -54.03,9.6938 -47.92,10.0176 -41.139,9.7022 -34.689,9.1567 -29.333,8.6992 -25.093,8.3364 -41.9293,15.9678 -77.0254,32.7988 -41.3838,20.6866 -45.2949,26.477 -47.8575,31.9551 -45.4277,33.8726 -20.165,16.4746 -17.6065,15.5444 -14.8672,14.4233 -12.5517,13.4698 -20.0088,24.8413 -16.3037,23.3149 -15.6641,23.4732 -15.5342,25.9472 -15.2763,30.896 -14.7803,37.7046 -13.2432,41.8311 -10.3037,41.2417 -6.0693,36.1767 -2.1182,30.396 m 7871.6198,1965.5864 h 725.323 l -673.848,-2514.8369 h 1226.346 l 673.849,2514.8369 h 728.235 l 168.591,629.1942 h -2679.902 l -168.594,-629.1942" /></g></g></g><g
           id="g44"><g
             id="g46"><path
               id="path48"
               style="fill:none;stroke:#ff7f00;stroke-width:19.68499947;stroke-linecap:round;stroke-linejoin:round;stroke-miterlimit:10;stroke-dasharray:none;stroke-opacity:1"
               d="m 12718.933,9175.252 h -1226.347 l 76.49,285.4677 12.545,48.2725 10.621,43.7021 8.86,39.295 7.26,35.0507 5.827,30.9698 4.554,27.0517 3.447,23.2969 2.5,19.7041 1.707,16.3203 1.023,13.3203 0.436,10.7481 -0.05,8.6054 -1.181,12.4961 -1.963,9.0674 -6.32,17.3467 -7.165,9.3369 -11.969,10.1328 -18.288,10.8418 -25.772,10.0449 -16.03,4.1426 -18.304,3.2471 -20.716,2.1182 -23.261,0.7578 -39.885,-2.4649 -34.31,-6.334 -28.526,-8.6103 -22.529,-9.293 -16.617,-8.6855 -11.962,-8.003 -16.167,-14.8681 -7.212,-7.7901 -8.188,-10.8408 -10.14,-16.9385 -6.109,-11.7099 -6.961,-14.3779 -7.903,-17.3887 -8.78,-20.5928 -9.56,-23.9492 -10.242,-27.46 -10.825,-31.123 -11.311,-34.9414 -11.697,-38.9121 -11.986,-43.0371 -404.31,-1508.9019 -9.728,-38.0068 -8.027,-34.6973 -6.483,-31.4683 -5.104,-28.3208 -3.882,-25.2544 -2.825,-22.2685 -1.925,-19.3643 -1.19,-16.541 -0.6,-13.8423 -0.1,-11.4428 1.031,-17.0586 2.182,-11.5743 2.758,-8.8315 7.738,-17.0986 7.676,-9.2032 12.245,-9.9887 18.218,-10.6865 25.118,-9.9014 15.4,-4.0835 17.429,-3.2007 19.558,-2.0884 21.79,-0.7466 24.349,0.8443 22.774,2.3608 40.668,8.2339 33.918,11.1929 26.868,12.0805 19.874,11.2915 14.363,10.4039 19.539,19.3286 8.704,9.9448 9.659,12.8125 11.573,18.5474 6.802,12.3198 7.638,14.8296 8.551,17.6474 9.358,20.5772 10.02,23.5698 10.533,26.625 10.899,29.7432 11.117,32.9233 11.19,36.166 11.112,39.4717 99.906,372.8565 h -247.599 l 128.005,477.7216 h 1436.078 l -452.181,-1687.5625 h -770.654 l -53.063,225.2671 -63.161,-51.1562 -63.653,-44.045 -30.814,-19.2666 -29.501,-17.3823 -27.712,-15.4619 -25.44,-13.5063 -22.829,-11.5625 -20.425,-9.8199 -18.363,-8.3266 -16.646,-7.0821 -29.511,-11.4257 -26.765,-9.4351 -26.949,-9.1504 -30.812,-9.4346 -18.061,-4.913 -20.476,-5.0909 -23.372,-5.3042 -26.751,-5.5527 -30.476,-5.79 -34,-5.8257 -37.184,-5.6123 -40.027,-5.1504 -42.533,-4.4385 -44.7,-3.479 -94.539,-3.0815 -71.097,1.7197 -67.936,4.7148 -64.036,7.042 -59.401,8.7017 -54.03,9.6938 -47.92,10.0176 -41.139,9.7022 -34.689,9.1567 -29.333,8.6992 -25.093,8.3364 -41.9293,15.9678 -77.0254,32.7988 -41.3838,20.6866 -45.2949,26.477 -47.8575,31.9551 -45.4277,33.8726 -20.165,16.4746 -17.6065,15.5444 -14.8672,14.4233 -12.5517,13.4698 -20.0088,24.8413 -16.3037,23.3149 -15.6641,23.4732 -15.5342,25.9472 -15.2763,30.896 -14.7803,37.7046 -13.2432,41.8311 -10.3037,41.2417 -6.0693,36.1767 -2.1182,30.396 1.6231,52.3032 2.2412,29.2046 2.0703,18.6075 3.0459,22.7207 4.2773,27.9169 5.7656,34.1822 7.4834,41.0039 9.3956,47.7153 11.498,54.272 13.7949,60.6743 16.2832,66.9214 18.9619,73.0146 250.2872,934.0821 19.8369,71.6992 19.7851,67.248 19.5586,62.7735 19.1602,58.2734 18.5869,53.749 17.8408,49.1993 16.9217,44.625 15.829,40.0263 14.563,35.4024 13.158,30.8095 11.832,26.5938 10.664,22.8877 9.658,19.6885 8.811,16.999 15.724,27.9648 28.415,45.71 15.909,23.1582 19.707,24.8105 25.549,27.3506 15.605,14.9063 17.815,15.8633 41.702,34.1036 47.564,35.654 50.714,35.247 51.15,32.884 49.081,28.748 46.522,24.644 44.615,21.593 43.377,19.614 86.862,37.392 23.976,9.511 26.162,9.693 29.013,9.931 32.528,10.226 36.71,10.574 41.557,10.979 47.068,11.441 52.991,11.845 58.665,11.91 63.982,11.584 68.941,10.869 73.543,9.765 77.788,8.273 81.675,6.39 85.205,4.121 88.379,1.458 86.378,-1.267 82.182,-3.578 77.79,-5.551 73.204,-7.185 68.425,-8.483 63.449,-9.44 58.281,-10.062 52.918,-10.344 47.36,-10.289 41.696,-9.936 36.458,-9.536 31.852,-9.185 27.878,-8.882 24.538,-8.626 41.579,-16.679 70.376,-32.493 70.146,-36.302 36.131,-22.172 37.2,-26.258 37.791,-30.412 36.585,-32.91 33.445,-33.572 28.373,-32.398 21.586,-29.5508 15.226,-26.581 10.502,-24.3741 7.431,-22.9394 11.688,-45.3604 4.904,-27.1552 1.954,-16.2198 1.508,-18.5742 0.979,-21.376 0.368,-24.623 -0.331,-28.3145 -1.147,-32.3212 -2.172,-36.2969 -3.421,-40.1885 -4.894,-43.9951 -6.591,-47.7139 -8.512,-51.3496 -10.656,-54.8984 -13.025,-58.3633 -15.619,-61.7412 -36.423,-135.9365" /></g></g><g
           id="g50"><g
             id="g52"><path
               id="path54"
               style="fill:none;stroke:#ff7f00;stroke-width:19.68499947;stroke-linecap:round;stroke-linejoin:round;stroke-miterlimit:10;stroke-dasharray:none;stroke-opacity:1"
               d="m 17287.775,10332.659 -842.441,-3144.0311 h -1071.961 l 567.281,2122.5606 -995.483,-2122.5606 h -760.277 l 105.681,2074.0117 -557.186,-2074.0117 h -1071.962 l 842.441,3144.0311 h 1586.822 l -0.665,-28.754 -0.969,-32.774 -1.252,-36.307 -1.508,-39.347 -3.687,-85.862 -4.416,-92.152 -10.24,-187.5157 -5.429,-87.5303 -2.707,-40.4941 -2.667,-37.6612 -40.146,-799.7236 675.209,1468.1209 h 1595.562" /></g></g><g
           id="g56"><g
             id="g58"><path
               id="path60"
               style="fill:none;stroke:#ff7f00;stroke-width:19.68499947;stroke-linecap:round;stroke-linejoin:round;stroke-miterlimit:10;stroke-dasharray:none;stroke-opacity:1"
               d="m 20250.232,10332.659 -168.591,-629.1942 h -728.235 l -673.849,-2514.8369 h -1226.346 l 673.848,2514.8369 h -725.323 l 168.594,629.1942 h 2679.902" /></g></g><g
           id="g62"><g
             id="g64"><g
               id="g66"><path
                 id="path68"
                 style="fill:#6ec1dd;fill-opacity:1;fill-rule:evenodd;stroke:none"
                 d="m 7626.7368,6273.6343 h -285.4145 v -165.6988 l 114.166,0.793 -0.793,-177.5913 -0.9795,-19.6265 -2.9927,-17.1279 -4.1943,-14.4331 -4.5845,-11.5439 -4.3164,-8.6202 -4,-6.3071 -7.4741,-8.7583 -8.2915,-7.9033 -5.9419,-4.2769 -8.0976,-4.667 -10.8184,-5.0263 -13.4946,-4.7105 -15.9722,-3.5586 -18.251,-1.5698 -18.5132,1.2075 -16.1684,3.1035 -13.6353,4.2178 -10.9131,4.5528 -8.1547,4.2548 -5.9717,3.9209 -8.3037,7.2842 -7.4742,8.0767 -4,5.8037 -4.3164,7.9219 -4.5844,10.5976 -4.1944,13.2363 -2.9926,15.689 -0.9795,17.9566 v 599.3696 l 0.9292,20.7573 2.8632,18.1299 4.0186,15.29 4.395,12.2378 4.1387,9.145 3.8369,6.6968 7.1704,9.3135 7.9634,8.3843 5.7197,4.4907 7.8057,4.8477 10.4399,5.1538 13.0371,4.7216 15.4493,3.3804 17.6777,1.1304 16.2178,-1.0298 14.0786,-3.1221 11.8047,-4.3701 9.3989,-4.7739 12.0698,-8.6572 6.9907,-7.7774 6.2725,-8.6445 3.376,-6.2232 3.664,-8.5039 3.9204,-11.3862 3.6324,-14.2339 2.6718,-16.8877 1.0401,-19.3486 0.7929,-72.939 h 180.7623 v 72.939 l -1.2998,28.8857 -2.9874,26.5108 -4.0849,23.6694 -4.5933,20.3589 -4.5219,16.5991 -4.1646,12.9756 -7.5605,18.4922 -15.502,29.1748 -12.0303,16.814 -16.6982,18.871 -18.1016,17.3912 -16.1128,12.5112 -27.9267,16.0781 -17.6963,7.8047 -12.416,4.2744 -15.8819,4.6172 -19.479,4.6587 -22.644,4.0918 -25.3613,2.9077 -27.6304,1.1065 -27.9024,-1.1456 -25.6464,-3.0102 -22.9258,-4.2363 -19.7427,-4.8228 -16.1123,-4.7807 -12.6079,-4.4249 -18.0029,-8.0805 -28.4654,-16.6314 -16.436,-12.8974 -18.4766,-17.8936 -17.0542,-19.3921 -12.2983,-17.2553 -15.8721,-29.8999 -7.7134,-18.9825 -4.2236,-13.3427 -4.5635,-17.086 -4.6035,-20.9756 -4.0434,-24.4121 -2.8736,-27.376 -1.0932,-29.8681 v -599.3696 l 1.1059,-28.1221 2.9077,-25.794 4.0918,-23.0156 4.6587,-19.7871 4.6177,-16.1255 4.2739,-12.5991 7.8052,-17.9419 16.0698,-28.293 12.4795,-16.3491 17.3276,-18.3945 18.7881,-16.9903 16.7276,-12.267 28.998,-15.8638 18.3394,-7.7134 12.8418,-4.2236 16.4101,-4.5635 20.106,-4.6035 23.3457,-4.044 26.1128,-2.873 28.4067,-1.0938 28.3545,1.1455 25.9761,3.0103 23.1533,4.2363 19.8862,4.8233 16.1929,4.7802 12.6406,4.4249 17.9722,8.0805 28.2949,16.6153 16.3491,12.8344 18.3946,17.7661 16.9902,19.2271 12.2671,17.082 15.8638,29.5479 7.7133,18.7065 4.2237,13.1177 4.5635,16.7754 4.6035,20.5679 4.0439,23.9028 2.8731,26.7617 1.0937,29.144 v 340.9112 m 644.5601,-381.3447 -167.2842,0.7924 v -17.4419 l -0.8892,-12.893 -2.2841,-11.2447 -6.4561,-17.039 -6.0186,-9.7803 -5.3618,-5.7295 -5.9687,-5.1592 -10.2676,-5.7915 -17.9888,-6.2124 -11.9204,-2.1982 -13.7124,-0.8555 -14.8423,1.1074 -12.9228,2.8443 -10.8657,3.8667 -8.6739,4.1733 -11.1816,7.4946 -6.5244,6.6768 -5.8677,7.4077 -6.5864,12.6109 -3.667,9.7461 -3.398,12.1801 -2.4995,14.4473 -0.9731,16.5474 v 102.2729 h 333.7763 v 225.1602 l -2.7851,44.5278 -7.1543,38.7676 -9.7246,32.5986 -10.4961,26.0205 -9.8106,19.3931 -9.04,14.1528 -16.793,19.5728 -18.6772,17.603 -13.5112,9.4751 -18.5191,10.2832 -24.8535,11.0019 -31.1436,10.1939 -37.0463,7.499 -42.5616,2.919 -41.7597,-3.0699 -36.4131,-7.8872 -30.6621,-10.7207 -24.5069,-11.5708 -18.2885,-10.8154 -13.3687,-9.9653 -18.5381,-18.5137 -16.6928,-20.5942 -8.9849,-14.9082 -9.7515,-20.4405 -10.4326,-27.4399 -9.6665,-34.3936 -7.1113,-40.9253 -2.7681,-47.0341 v -307.6133 l 2.835,-44.2661 7.2842,-38.5708 9.9003,-32.4576 10.6861,-25.9257 9.9878,-19.336 9.2026,-14.1235 17.0972,-19.5606 18.9927,-17.603 13.7041,-9.4751 18.7539,-10.2832 25.1377,-11.0019 31.4599,-10.1934 37.3721,-7.4995 42.8735,-2.919 41.7432,2.6338 36.3701,6.7666 30.6035,9.1978 24.4439,9.9267 18.229,9.2789 13.3144,8.5493 18.437,15.8833 16.5909,17.6548 8.9306,12.7563 9.6924,17.4717 10.3701,23.4346 9.6074,29.3476 7.0684,34.8882 2.751,40.0557 v 14.271 m -336.1543,107.8227 h -35.6768 v 133.9863 h 35.6768 v -133.9863 m 166.4917,227.5386 v -93.5523 h -166.4917 v 86.417 l 0.9057,19.0532 2.3277,16.605 3.1631,13.9756 3.4145,11.1655 3.1914,8.3287 2.9404,6.0844 5.4634,8.4297 6.0699,7.5879 10.3808,8.5166 18.1109,9.1357 11.9633,3.2325 13.729,1.2583 14.2857,-1.1743 12.4429,-3.0171 10.4672,-4.1006 8.3579,-4.4263 10.7818,-7.9487 6.2969,-7.0816 5.6655,-7.8745 3.0493,-5.6948 3.3096,-7.8037 3.541,-10.4712 3.2808,-13.1191 2.4135,-15.6031 0.9395,-17.9228 m 619.1899,-411.4722 h -58.6679 l -17.2813,2.6348 -12.1523,5.3598 -6.9493,4.9961 -4.0507,4.4517 -3.6426,4.9341 -4.0879,8.3784 -4.3848,14.5391 -2.1562,20.5102 v 431.8389 l -172.834,-0.376 v -447.3193 l 2.0635,-37.187 5.3007,-32.2754 7.2061,-27.0601 7.7773,-21.5415 7.2696,-16.0122 6.6972,-11.6455 12.4444,-16.0132 14.1035,-14.3657 10.6396,-7.7324 14.9473,-8.3921 20.4336,-8.9785 26.0879,-8.3189 31.6533,-6.1201 37.1299,-2.3823 h 82.4531 v 168.0771 m -286.207,497.2671 v 161.5645 h -77.6963 l -0.792,-161.7349 78.4883,0.1704 m 286.207,161.5645 h -113.373 v -161.1885 l 113.373,0.2466 v 160.9419 m -113.373,0 v 239.4306 h -172.834 v -239.4306 h 172.834 m 705.6074,-213.2681 -2.6836,38.3682 -6.8965,33.4067 -9.373,28.0923 -10.1162,22.4248 -9.4561,16.7143 -8.7129,12.1988 -16.1865,16.872 -17.958,15.1753 -12.9199,8.168 -17.6495,8.8652 -23.624,9.4844 -29.5234,8.7876 -35.0176,6.4648 -40.1064,2.5162 -40.418,-2.5162 -35.3438,-6.4648 -29.8398,-8.7876 -23.9082,-9.4844 -17.8838,-8.8652 -13.1123,-8.168 -18.2744,-15.1753 -16.4776,-16.872 -8.8466,-12.1988 -9.5762,-16.7143 -10.2119,-22.4248 -9.4082,-28.0923 -6.8281,-33.4067 -2.4727,-38.3682 v -390.0659 l 2.4727,-38.6968 6.8281,-33.7759 9.4082,-28.4678 10.2119,-22.7719 9.5762,-17.0083 8.8466,-12.4458 16.4776,-17.2896 18.2744,-15.5796 13.1123,-8.3857 17.8838,-9.1016 23.9082,-9.7373 29.8398,-9.022 35.3438,-6.6372 40.418,-2.5835 40.1064,2.5498 35.0176,6.5513 29.5234,8.9048 23.624,9.6108 17.6495,8.9829 12.9199,8.2774 17.958,15.3774 16.1865,17.0743 8.7129,12.3081 9.4561,16.832 10.1162,22.5517 9.373,28.2095 6.8965,33.4927 2.6836,38.4019 v 392.4443 m -172.834,-10.3067 v -370.2456 l -0.7549,-13.4336 -1.9394,-11.6806 -5.4815,-17.6319 -5.1103,-10.0668 -4.5518,-5.8555 -5.0732,-5.2608 -8.752,-5.9047 -15.3672,-6.3345 -21.9443,-3.1133 -21.1484,3.1133 -15.1397,6.3345 -8.8056,5.9047 -5.251,5.2608 -4.7549,5.8555 -5.3369,10.0668 -5.7246,17.6319 -2.0264,11.6806 -0.7881,13.4336 v 370.2456 l 2.8145,23.6792 5.7246,16.8042 5.3369,9.6934 4.7549,5.7168 5.251,5.1597 8.8056,5.791 15.1397,6.2129 21.1484,3.0532 11.7451,-0.6104 10.1992,-2.0444 15.3672,-6.0991 8.752,-5.8179 5.0732,-5.2485 4.5518,-5.8179 5.1103,-9.8071 5.4815,-16.9258 2.6943,-23.7393 m 815.8086,-326.6406 -172.834,1.5855 v -38.0552 l -0.9228,-15.1211 -2.3701,-13.1621 -3.2217,-11.0654 -3.4776,-8.8316 -6.2461,-11.3823 -5.5634,-6.6377 -6.1592,-5.9687 -10.4082,-6.6998 -17.9971,-7.187 -11.8096,-2.5429 -13.4843,-0.9898 -13.7452,0.9395 -12.0068,2.4135 -18.2324,6.8218 -10.4951,6.3589 -6.1709,5.6655 -5.5645,6.3091 -6.2451,10.8687 -3.4775,8.4521 -3.2227,10.6084 -2.3701,12.6397 -0.9229,14.5473 v 349.6324 l 0.9229,16.5131 2.3701,14.3614 3.2227,12.063 3.4775,9.6196 6.2451,12.3838 5.5645,7.2055 6.1709,6.4746 10.4951,7.2676 18.2324,7.7959 12.0068,2.7583 13.7452,1.0738 13.4843,-1.1075 11.8096,-2.8442 17.9971,-8.04 10.4082,-7.4942 6.1592,-6.6772 5.5634,-7.4204 6.2461,-12.6973 3.4776,-9.8408 3.2217,-12.3208 2.3701,-14.6441 0.9228,-16.8086 v -40.4336 h 171.249 v 49.1543 l -3.08,42.0049 -7.4375,36.5669 -9.9825,30.7442 -10.7177,24.538 -9.9854,18.2867 -9.1777,13.3437 -17.0088,18.4492 -18.8916,16.5918 -13.6494,8.9302 -18.6953,9.6924 -25.0743,10.3696 -31.4013,9.6079 -37.3291,7.0684 -42.8565,2.751 -42.5957,-2.7178 -37.1318,-6.9819 -31.2607,-9.4908 -24.9805,-10.2426 -18.6367,-9.5743 -13.6211,-8.8217 -18.8789,-16.3892 -16.9961,-18.2471 -9.1485,-13.2348 -9.9287,-18.168 -10.622,-24.4116 -9.8418,-30.6275 -7.2413,-36.4804 -2.8183,-41.9712 v -365.4888 l 2.8017,-40.022 7.1973,-34.8022 9.7842,-29.231 10.5586,-23.3076 9.8701,-17.3535 9.0937,-12.6475 16.8946,-17.4526 18.791,-15.6807 13.5947,-8.4404 18.6358,-9.1606 25.0107,-9.8003 31.3438,-9.0806 37.2851,-6.6807 42.8408,-2.6001 43.1348,2.6675 37.5693,6.8526 31.6006,9.3149 25.2324,10.0537 18.8106,9.3965 13.7344,8.6587 19.0048,16.0854 17.1094,17.857 9.2324,12.8652 10.045,17.5898 10.7802,23.5611 10.0411,29.4648 7.4804,34.9746 3.0967,40.0894 v 45.1904 m 604.9198,-32.5053 -167.284,0.7924 v -17.4419 l -0.89,-12.893 -2.284,-11.2447 -6.456,-17.039 -6.018,-9.7803 -5.362,-5.7295 -5.969,-5.1592 -10.267,-5.7915 -17.989,-6.2124 -11.92,-2.1982 -13.712,-0.8555 -14.843,1.1074 -12.923,2.8443 -10.866,3.8667 -8.673,4.1733 -11.182,7.4946 -6.525,6.6768 -5.867,7.4077 -6.586,12.6109 -3.668,9.7461 -3.397,12.1801 -2.5,14.4473 -0.973,16.5474 v 102.2729 h 333.776 v 225.1602 l -2.785,44.5278 -7.154,38.7676 -9.725,32.5986 -10.496,26.0205 -9.81,19.3931 -9.04,14.1528 -16.794,19.5728 -18.676,17.603 -13.512,9.4751 -18.519,10.2832 -24.854,11.0019 -31.144,10.1939 -37.045,7.499 -42.562,2.919 -41.76,-3.0699 -36.413,-7.8872 -30.662,-10.7207 -24.507,-11.5708 -18.288,-10.8154 -13.369,-9.9653 -18.538,-18.5137 -16.692,-20.5942 -8.986,-14.9082 -9.752,-20.4405 -10.432,-27.4399 -9.666,-34.3936 -7.112,-40.9253 -2.767,-47.0341 v -307.6133 l 2.835,-44.2661 7.283,-38.5708 9.9,-32.4576 10.687,-25.9257 9.987,-19.336 9.203,-14.1235 17.097,-19.5606 18.993,-17.603 13.704,-9.4751 18.754,-10.2832 25.138,-11.0019 31.46,-10.1934 37.372,-7.4995 42.874,-2.919 41.743,2.6338 36.369,6.7666 30.604,9.1978 24.444,9.9267 18.228,9.2789 13.315,8.5493 18.437,15.8833 16.591,17.6548 8.931,12.7563 9.692,17.4717 10.37,23.4346 9.608,29.3476 7.068,34.8882 2.751,40.0557 v 14.271 m -336.154,107.8227 h -35.677 v 133.9863 h 35.677 v -133.9863 m 166.491,227.5386 v -93.5523 h -166.491 v 86.417 l 0.905,19.0532 2.328,16.605 3.163,13.9756 3.414,11.1655 3.192,8.3287 2.941,6.0844 5.463,8.4297 6.069,7.5879 10.381,8.5166 18.112,9.1357 11.964,3.2325 13.728,1.2583 14.285,-1.1743 12.444,-3.0171 10.466,-4.1006 8.359,-4.4263 10.781,-7.9487 6.298,-7.0816 5.665,-7.8745 3.05,-5.6948 3.309,-7.8037 3.54,-10.4712 3.282,-13.1191 2.413,-15.6031 0.939,-17.9228 m 815.017,20.6133 -2.769,40.8574 -7.111,35.5215 -9.666,29.8296 -10.433,23.7807 -9.752,17.7027 -8.984,12.8994 -16.693,17.7929 -18.513,15.9839 -13.311,8.604 -18.173,9.3379 -24.318,9.9903 -30.38,9.2563 -36.02,6.8096 -41.237,2.6504 -41.169,-2.6675 -35.847,-6.8526 -30.146,-9.3149 -24.065,-10.0532 -17.938,-9.397 -13.092,-8.6582 -18.109,-16.0854 -16.287,-17.8819 -8.768,-12.9243 -9.514,-17.7046 -10.181,-23.7495 -9.432,-29.7471 -6.938,-35.3676 -2.701,-40.6128 h 167.284 l 0.839,14.5644 2.155,12.6826 2.929,10.6665 3.162,8.5161 5.678,10.9815 5.057,6.4106 5.592,5.7666 9.406,6.4727 16.211,6.9434 10.612,2.4565 12.091,0.9565 14.269,-0.9565 12.4,-2.4565 10.408,-3.3394 8.295,-3.604 10.668,-6.4727 6.197,-5.7666 5.563,-6.4106 6.246,-10.9815 3.478,-8.5161 3.222,-10.6665 2.371,-12.6826 0.922,-14.5644 v -101.4805 h -78.489 l -45.491,-2.919 -39.339,-7.499 -32.869,-10.1938 -26.082,-11.002 -19.326,-10.2832 -13.999,-9.4751 -19.116,-17.603 -17.097,-19.7212 -9.203,-14.5063 -9.989,-20.0806 -10.685,-27.1538 -9.9,-34.2896 -7.285,-41.1274 -2.835,-47.668 2.115,-40.4448 5.429,-34.9365 7.382,-29.1612 7.967,-23.1176 7.447,-17.1133 6.86,-12.3799 12.748,-16.8701 14.246,-15.0737 10.422,-8.1138 14.379,-8.8057 19.395,-9.4214 24.433,-8.729 29.225,-6.4218 33.778,-2.4996 31.211,2.4561 24.666,5.353 16.493,5.4395 10.257,4.7749 16.112,9.8706 9.285,7.789 10.424,10.9117 9.608,11.8979 6.914,10.6577 8.891,18.5992 2.018,5.5009 v -81.3579 h 166.492 v 596.1983 m -166.492,-352.0108 -1.057,-18.6738 -2.715,-16.1069 -3.691,-13.4248 -3.984,-10.628 -3.722,-7.8574 -3.431,-5.6743 -6.374,-7.7095 -7.142,-6.8789 -12.53,-7.7217 -9.84,-4.2998 -12.427,-3.9839 -14.908,-2.9306 -17.281,-1.1407 -13.662,0.9058 -11.791,2.3276 -17.624,6.5777 -9.926,6.1318 -5.666,5.4634 -5.046,6.1069 -5.591,10.6411 -3.067,8.3262 -2.788,10.4907 -1.958,12.5537 -0.577,14.5137 0.845,22.5557 2.648,19.4204 3.725,16.1592 4.08,12.7724 3.842,9.4278 3.565,6.7939 6.665,9.1978 7.494,8.1948 5.536,4.4106 7.682,4.7871 10.407,5.1216 13.167,4.7451 15.824,3.4913 18.379,1.3588 h 72.939 v -105.4448 m 15.063,-72.9389 -2.634,-36.0196 -2.4,-15.3252 -2.675,-13.1513 -2.621,-10.7007 -2.404,-8.3462 -2.329,-6.3477 v 162.8296 l 15.063,-72.9389 m -15.063,323.4692 h 4.756 l 11.1,-145.0855 h -15.856 v 145.0855 m 843.557,127.6435 -1.895,36.3853 -4.871,31.6421 -6.62,26.5791 -7.144,21.1943 -6.679,15.7813 -6.153,11.5029 -11.432,15.875 -12.695,14.2647 -9.154,7.6777 -12.523,8.3335 -16.779,8.915 -20.993,8.2603 -24.929,6.0771 -28.588,2.3653 -21.674,-1.627 -20.007,-4.1807 -17.715,-5.6826 -14.799,-6.1333 -11.507,-5.7329 -8.85,-5.2822 -13.271,-9.813 -12.764,-11.0395 -7.644,-8.1949 -9.158,-11.4048 -10.925,-15.4843 -11.939,-19.6328 -6.239,-12.3536 v -146.6538 l 0.822,18.6236 2.111,15.9775 2.872,13.249 3.098,10.4385 2.896,7.6802 2.668,5.5107 4.957,7.4058 5.614,6.5757 10.16,7.3813 8.105,4.1099 10.338,3.8081 12.535,2.8013 14.691,1.0903 14.726,-1.0903 12.621,-2.8013 10.456,-3.8081 8.23,-4.1099 10.388,-7.3813 5.815,-6.5757 5.16,-7.3687 2.777,-5.4223 3.014,-7.5083 3.225,-10.1553 2.987,-12.8262 2.199,-15.3872 0.855,-17.8389 v -576.3779 h 173.627 v 622.3613 m -336.947,98.292 v 102.2911 h -174.42 v -822.9444 h 174.42 v 573.9995 l -16.65,107.8233 10.945,27.5346 5.705,11.2959 m 1572.156,432.1026 h -158.562 l -217.233,-674.687 -211.682,674.687 h -163.321 V 5652.0659 h 160.943 v 719.6504 l 165.698,-523.0317 h 97.516 l 169.664,550.2978 v -746.9165 h 156.977 v 1152.7559 m -589.855,-433.1055 -16.65,52.5532 16.65,66.5967 v -119.1499 m 445.563,68.4097 -12.685,-41.1436 v 91.8838 l 12.685,-50.7402 m 798.366,-191.8618 -2.767,40.8574 -7.112,35.5215 -9.666,29.8296 -10.432,23.7807 -9.752,17.7027 -8.986,12.8994 -16.692,17.7929 -18.514,15.9839 -13.309,8.604 -18.174,9.3379 -24.317,9.9903 -30.381,9.2563 -36.02,6.8096 -41.236,2.6504 -41.17,-2.6675 -35.847,-6.8526 -30.146,-9.3149 -24.065,-10.0532 -17.937,-9.397 -13.092,-8.6582 -18.109,-16.0854 -16.288,-17.8819 -8.767,-12.9243 -9.516,-17.7046 -10.179,-23.7495 -9.432,-29.7471 -6.939,-35.3676 -2.701,-40.6128 h 167.285 l 0.838,14.5644 2.155,12.6826 2.929,10.6665 3.161,8.5161 5.678,10.9815 5.059,6.4106 5.591,5.7666 9.406,6.4727 16.212,6.9434 10.611,2.4565 12.091,0.9565 14.27,-0.9565 12.399,-2.4565 10.409,-3.3394 8.295,-3.604 10.668,-6.4727 6.195,-5.7666 5.565,-6.4106 6.245,-10.9815 3.477,-8.5161 3.223,-10.6665 2.37,-12.6826 0.923,-14.5644 v -101.4805 h -78.489 l -45.49,-2.919 -39.339,-7.499 -32.869,-10.1938 -26.082,-11.002 -19.328,-10.2832 -13.998,-9.4751 -19.116,-17.603 -17.098,-19.7212 -9.202,-14.5063 -9.988,-20.0806 -10.686,-27.1538 -9.9,-34.2896 -7.284,-41.1274 -2.835,-47.668 2.113,-40.4448 5.431,-34.9365 7.382,-29.1612 7.966,-23.1176 7.447,-17.1133 6.861,-12.3799 12.747,-16.8701 14.246,-15.0737 10.421,-8.1138 14.38,-8.8057 19.396,-9.4214 24.431,-8.729 29.227,-6.4218 33.778,-2.4996 31.21,2.4561 24.666,5.353 16.493,5.4395 10.257,4.7749 16.111,9.8706 9.287,7.789 10.423,10.9117 9.609,11.8979 6.914,10.6577 8.891,18.5992 2.017,5.5009 v -81.3579 h 166.491 v 596.1983 m -166.491,-246.566 v -105.4448 l -1.057,-18.6738 -2.715,-16.1069 -3.691,-13.4248 -3.983,-10.628 -3.724,-7.8574 -3.43,-5.6743 -6.374,-7.7095 -7.141,-6.8789 -12.53,-7.7217 -9.84,-4.2998 -12.427,-3.9839 -14.908,-2.9306 -17.283,-1.1407 -13.661,0.9058 -11.791,2.3276 -17.624,6.5777 -9.926,6.1318 -5.665,5.4634 -5.046,6.1069 -5.591,10.6411 -3.067,8.3262 -2.789,10.4907 -1.958,12.5537 -0.577,14.5137 0.845,22.5557 2.648,19.4204 3.726,16.1592 4.078,12.7724 3.844,9.4278 3.564,6.7939 6.665,9.1978 7.495,8.1948 5.536,4.4106 7.681,4.7871 10.407,5.1216 13.168,4.7451 15.823,3.4913 18.379,1.3588 h 72.939 m 15.857,0 h -15.857 v 145.0855 h 4.757 l 11.1,-145.0855 m -15.857,-105.4448 15.064,-72.9389 -2.634,-36.0196 -2.401,-15.3252 -2.675,-13.1513 -2.621,-10.7007 -2.405,-8.3462 -2.328,-6.3477 v 162.8296 m 717.5,593.0274 -26.575,-1.7784 -24.515,-4.5683 -21.692,-6.21 -18.111,-6.7021 -14.078,-6.2647 -10.82,-5.7719 -16.214,-10.7242 -15.655,-11.8755 -9.497,-8.5083 -11.498,-11.5927 -13.861,-15.4868 -15.352,-19.315 -13.815,-20.1577 v -211.9561 l 2.174,26.4444 5.111,23.2265 6.819,19.69 7.303,15.834 6.795,11.8867 6.237,8.7558 11.545,12.2925 12.797,11.1284 9.209,5.9903 12.581,6.501 16.843,6.955 21.05,6.4444 24.973,4.7407 28.605,1.8452 h 9.168 6.804 6.623 5.93 11.116 v 179.1768 m -211.683,-128.9556 v 114.6851 h -173.627 v -822.9444 h 173.627 v 496.3032 l -16.649,183.1412 14.799,26.1152 1.85,2.6997 m 498.682,-708.2593 -0.792,822.9444 h -172.835 v -822.9444 h 173.627 m 0,975.1651 -0.792,172.0415 -172.835,0.7924 V 6626.438 l 173.627,0.793 m 668.346,-352.8038 -1.896,36.3853 -4.871,31.6421 -6.619,26.5791 -7.146,21.1943 -6.677,15.7813 -6.153,11.5029 -11.433,15.875 -12.695,14.2647 -9.155,7.6777 -12.521,8.3335 -16.78,8.915 -20.993,8.2603 -24.929,6.0771 -28.588,2.3653 -21.674,-1.627 -20.007,-4.1807 -17.716,-5.6826 -14.798,-6.1333 -11.507,-5.7329 -8.85,-5.2822 -13.271,-9.813 -12.764,-11.0395 -7.644,-8.1949 -9.158,-11.4048 -10.926,-15.4843 -11.937,-19.6328 -6.24,-12.3536 v -146.6538 l 0.822,18.6236 2.112,15.9775 2.87,13.249 3.099,10.4385 2.895,7.6802 2.669,5.5107 4.957,7.4058 5.614,6.5757 10.16,7.3813 8.104,4.1099 10.339,3.8081 12.535,2.8013 14.692,1.0903 14.724,-1.0903 12.621,-2.8013 10.457,-3.8081 8.231,-4.1099 10.387,-7.3813 5.816,-6.5757 5.159,-7.3687 2.778,-5.4223 3.013,-7.5083 3.225,-10.1553 2.988,-12.8262 2.198,-15.3872 0.856,-17.8389 v -576.3779 h 173.627 v 622.3613 m -336.948,98.292 v 102.2911 h -174.419 v -822.9444 h 174.419 v 573.9995 l -16.649,107.8233 10.944,27.5346 5.705,11.2959 m 989.436,-480.4296 -167.284,0.7924 v -17.4419 l -0.89,-12.893 -2.284,-11.2447 -6.456,-17.039 -6.018,-9.7803 -5.362,-5.7295 -5.969,-5.1592 -10.267,-5.7915 -17.99,-6.2124 -11.919,-2.1982 -13.712,-0.8555 -14.843,1.1074 -12.923,2.8443 -10.866,3.8667 -8.674,4.1733 -11.182,7.4946 -6.524,6.6768 -5.867,7.4077 -6.586,12.6109 -3.668,9.7461 -3.398,12.1801 -2.5,14.4473 -0.972,16.5474 v 102.2729 h 333.775 v 225.1602 l -2.784,44.5278 -7.154,38.7676 -9.726,32.5986 -10.496,26.0205 -9.81,19.3931 -9.04,14.1528 -16.793,19.5728 -18.677,17.603 -13.511,9.4751 -18.52,10.2832 -24.853,11.0019 -31.144,10.1939 -37.045,7.499 -42.562,2.919 -41.76,-3.0699 -36.413,-7.8872 -30.662,-10.7207 -24.507,-11.5708 -18.289,-10.8154 -13.368,-9.9653 -18.538,-18.5137 -16.693,-20.5942 -8.985,-14.9082 -9.752,-20.4405 -10.432,-27.4399 -9.666,-34.3936 -7.112,-40.9253 -2.768,-47.0341 v -307.6133 l 2.836,-44.2661 7.283,-38.5708 9.9,-32.4576 10.687,-25.9257 9.987,-19.336 9.203,-14.1235 17.097,-19.5606 18.993,-17.603 13.704,-9.4751 18.754,-10.2832 25.138,-11.0019 31.46,-10.1934 37.372,-7.4995 42.874,-2.919 41.743,2.6338 36.369,6.7666 30.603,9.1978 24.445,9.9267 18.228,9.2789 13.315,8.5493 18.437,15.8833 16.591,17.6548 8.931,12.7563 9.692,17.4717 10.37,23.4346 9.608,29.3476 7.068,34.8882 2.751,40.0557 v 14.271 m -336.154,107.8227 h -35.677 v 133.9863 h 35.677 v -133.9863 m 166.491,227.5386 v -93.5523 h -166.491 v 86.417 l 0.905,19.0532 2.328,16.605 3.163,13.9756 3.414,11.1655 3.192,8.3287 2.94,6.0844 5.464,8.4297 6.069,7.5879 10.381,8.5166 18.111,9.1357 11.964,3.2325 13.729,1.2583 14.285,-1.1743 12.443,-3.0171 10.467,-4.1006 8.359,-4.4263 10.781,-7.9487 6.297,-7.0816 5.666,-7.8745 3.049,-5.6948 3.309,-7.8037 3.541,-10.4712 3.281,-13.1191 2.414,-15.6031 0.939,-17.9228 m 1126.594,577.1709 h -568.451 l -0.792,-165.6988 h 198.204 v -987.0571 h 173.627 l -0.741,987.0571 h 198.153 v 165.6988 m -198.153,-165.6988 h -172.886 v 70.5611 h 172.834 l 0.05,-70.5611 m 763.432,-746.8334 -167.285,0.7924 v -17.4419 l -0.889,-12.893 -2.285,-11.2447 -6.455,-17.039 -6.02,-9.7803 -5.361,-5.7295 -5.969,-5.1592 -10.267,-5.7915 -17.989,-6.2124 -11.921,-2.1982 -13.711,-0.8555 -14.844,1.1074 -12.922,2.8443 -10.865,3.8667 -8.674,4.1733 -11.182,7.4946 -6.525,6.6768 -5.867,7.4077 -6.586,12.6109 -3.668,9.7461 -3.399,12.1801 -2.498,14.4473 -0.974,16.5474 v 102.2729 h 333.777 v 225.1602 l -2.785,44.5278 -7.154,38.7676 -9.725,32.5986 -10.496,26.0205 -9.811,19.3931 -9.039,14.1528 -16.795,19.5728 -18.675,17.603 -13.512,9.4751 -18.52,10.2832 -24.853,11.0019 -31.143,10.1939 -37.047,7.499 -42.562,2.919 -41.76,-3.0699 -36.412,-7.8872 -30.662,-10.7207 -24.508,-11.5708 -18.287,-10.8154 -13.369,-9.9653 -18.539,-18.5137 -16.692,-20.5942 -8.986,-14.9082 -9.75,-20.4405 -10.434,-27.4399 -9.666,-34.3936 -7.111,-40.9253 -2.767,-47.0341 v -307.6133 l 2.834,-44.2661 7.285,-38.5708 9.9,-32.4576 10.686,-25.9257 9.988,-19.336 9.201,-14.1235 17.098,-19.5606 18.992,-17.603 13.705,-9.4751 18.754,-10.2832 25.137,-11.0019 31.461,-10.1934 37.371,-7.4995 42.875,-2.919 41.742,2.6338 36.371,6.7666 30.603,9.1978 24.444,9.9267 18.228,9.2789 13.315,8.5493 18.437,15.8833 16.592,17.6548 8.93,12.7563 9.693,17.4717 10.369,23.4346 9.608,29.3476 7.068,34.8882 2.752,40.0557 v 14.271 m -336.156,107.8227 h -35.676 v 133.9863 h 35.676 v -133.9863 m 166.492,133.9863 h -166.492 v 86.417 l 0.906,19.0532 2.328,16.605 3.164,13.9756 3.414,11.1655 3.192,8.3287 2.939,6.0844 5.463,8.4297 6.07,7.5879 10.381,8.5166 18.111,9.1357 11.963,3.2325 13.729,1.2583 14.287,-1.1743 12.441,-3.0171 10.469,-4.1006 8.358,-4.4263 10.781,-7.9487 6.297,-7.0816 5.666,-7.8745 3.049,-5.6948 3.31,-7.8037 3.541,-10.4712 3.279,-13.1191 2.414,-15.6031 0.94,-17.9228 v -93.5523 m 812.639,-209.3037 -172.834,1.5855 v -38.0552 l -0.924,-15.1211 -2.371,-13.1621 -3.221,-11.0654 -3.479,-8.8316 -6.246,-11.3823 -5.562,-6.6377 -6.16,-5.9687 -10.407,-6.6998 -17.998,-7.187 -11.81,-2.5429 -13.485,-0.9898 -13.744,0.9395 -12.007,2.4135 -18.233,6.8218 -10.494,6.3589 -6.172,5.6655 -5.562,6.3091 -6.246,10.8687 -3.479,8.4521 -3.221,10.6084 -2.371,12.6397 -0.922,14.5473 v 349.6324 l 0.922,16.5131 2.371,14.3614 3.221,12.063 3.479,9.6196 6.246,12.3838 5.562,7.2055 6.172,6.4746 10.494,7.2676 18.233,7.7959 12.007,2.7583 13.744,1.0738 13.485,-1.1075 11.81,-2.8442 17.998,-8.04 10.407,-7.4942 6.16,-6.6772 5.562,-7.4204 6.246,-12.6973 3.479,-9.8408 3.221,-12.3208 2.371,-14.6441 0.924,-16.8086 v -40.4336 h 171.248 v 49.1543 l -3.08,42.0049 -7.438,36.5669 -9.982,30.7442 -10.717,24.538 -9.986,18.2867 -9.178,13.3437 -17.01,18.4492 -18.891,16.5918 -13.65,8.9302 -18.693,9.6924 -25.075,10.3696 -31.402,9.6079 -37.328,7.0684 -42.857,2.751 -42.596,-2.7178 -37.133,-6.9819 -31.26,-9.4908 -24.98,-10.2426 -18.637,-9.5743 -13.621,-8.8217 -18.879,-16.3892 -16.996,-18.2471 -9.148,-13.2348 -9.928,-18.168 -10.623,-24.4116 -9.842,-30.6275 -7.242,-36.4804 -2.817,-41.9712 v -365.4888 l 2.801,-40.022 7.197,-34.8022 9.784,-29.231 10.56,-23.3076 9.869,-17.3535 9.094,-12.6475 16.895,-17.4526 18.791,-15.6807 13.593,-8.4404 18.637,-9.1606 25.012,-9.8003 31.342,-9.0806 37.287,-6.6807 42.84,-2.6001 43.134,2.6675 37.569,6.8526 31.601,9.3149 25.233,10.0537 18.81,9.3965 13.735,8.6587 19.003,16.0854 17.11,17.857 9.232,12.8652 10.045,17.5898 10.781,23.5611 10.041,29.4648 7.481,34.9746 3.098,40.0894 v 45.1904 m 629.496,349.6323 -1.897,36.875 -4.869,31.9493 -6.621,26.7436 -7.145,21.2573 -6.677,15.7774 -6.155,11.4526 -11.431,15.6978 -12.696,14.062 -9.154,7.5693 -12.521,8.2149 -16.78,8.7885 -20.994,8.1431 -24.928,5.9912 -28.587,2.3316 -21.674,-1.6441 -20.008,-4.2236 -17.715,-5.7412 -14.799,-6.1963 -11.508,-5.792 -8.849,-5.3364 -13.272,-9.9146 -12.75,-11.1284 -7.615,-8.2197 -9.101,-11.4063 -10.83,-15.4536 -11.797,-19.5503 -7.368,-14.7334 v -144.6684 l 0.838,18.1171 2.157,15.6275 2.929,13.0254 3.16,10.313 2.956,7.6245 2.722,5.5063 5.059,7.4825 5.715,6.6767 10.273,7.4946 8.168,4.1734 10.398,3.8667 12.577,2.8442 14.709,1.1074 14.724,-1.0903 12.621,-2.8018 10.457,-3.8076 8.231,-4.1103 10.387,-7.3809 5.816,-6.5757 5.16,-7.3813 2.777,-5.4517 3.014,-7.5654 3.225,-10.25 2.988,-12.9668 2.197,-15.584 0.856,-18.1006 v -573.9995 h 173.627 v 622.3613 m -337.741,95.5137 v 434.8809 h -173.627 V 5652.0659 h 173.627 v 573.2066 l -15.062,108.6162 10.682,27.2895 4.38,8.7627 m 1014.807,-95.5137 -1.896,36.3853 -4.87,31.6421 -6.621,26.5791 -7.144,21.1943 -6.678,15.7813 -6.154,11.5029 -11.432,15.875 -12.695,14.2647 -9.154,7.6777 -12.522,8.3335 -16.779,8.915 -20.994,8.2603 -24.928,6.0771 -28.59,2.3653 -21.672,-1.627 -20.008,-4.1807 -17.714,-5.6826 -14.799,-6.1333 -11.508,-5.7329 -8.85,-5.2822 -13.271,-9.813 -12.764,-11.0395 -7.644,-8.1949 -9.159,-11.4048 -10.923,-15.4843 -11.94,-19.6328 -6.238,-12.3536 v -146.6538 l 0.822,18.6236 2.111,15.9775 2.872,13.249 3.097,10.4385 2.897,7.6802 2.668,5.5107 4.957,7.4058 5.613,6.5757 10.16,7.3813 8.104,4.1099 10.339,3.8081 12.536,2.8013 14.691,1.0903 14.725,-1.0903 12.621,-2.8013 10.455,-3.8081 8.232,-4.1099 10.387,-7.3813 5.816,-6.5757 5.159,-7.3687 2.777,-5.4223 3.016,-7.5083 3.224,-10.1553 2.986,-12.8262 2.2,-15.3872 0.855,-17.8389 v -576.3779 h 173.627 v 622.3613 m -336.947,98.292 v 102.2911 h -174.42 v -822.9444 h 174.42 v 573.9995 l -16.651,107.8233 10.946,27.5346 5.705,11.2959 m 968.822,-110.977 -2.684,38.3682 -6.896,33.4067 -9.373,28.0923 -10.117,22.4248 -9.455,16.7143 -8.713,12.1988 -16.188,16.872 -17.957,15.1753 -12.92,8.168 -17.65,8.8652 -23.623,9.4844 -29.524,8.7876 -35.017,6.4648 -40.108,2.5162 -40.417,-2.5162 -35.342,-6.4648 -29.842,-8.7876 -23.908,-9.4844 -17.883,-8.8652 -13.113,-8.168 -18.274,-15.1753 -16.478,-16.872 -8.846,-12.1988 -9.576,-16.7143 -10.213,-22.4248 -9.408,-28.0923 -6.828,-33.4067 -2.473,-38.3682 v -390.0659 l 2.473,-38.6968 6.828,-33.7759 9.408,-28.4678 10.213,-22.7719 9.576,-17.0083 8.846,-12.4458 16.478,-17.2896 18.274,-15.5796 13.113,-8.3857 17.883,-9.1016 23.908,-9.7373 29.842,-9.022 35.342,-6.6372 40.417,-2.5835 40.108,2.5498 35.017,6.5513 29.524,8.9048 23.623,9.6108 17.65,8.9829 12.92,8.2774 17.957,15.3774 16.188,17.0743 8.713,12.3081 9.455,16.832 10.117,22.5517 9.373,28.2095 6.896,33.4927 2.684,38.4019 v 392.4443 m -172.834,-10.3067 v -370.2456 l -0.756,-13.4336 -1.939,-11.6806 -5.481,-17.6319 -5.111,-10.0668 -4.551,-5.8555 -5.074,-5.2608 -8.752,-5.9047 -15.367,-6.3345 -21.944,-3.1133 -21.148,3.1133 -15.141,6.3345 -8.804,5.9047 -5.252,5.2608 -4.754,5.8555 -5.338,10.0668 -5.725,17.6319 -2.025,11.6806 -0.789,13.4336 v 370.2456 l 2.814,23.6792 5.725,16.8042 5.338,9.6934 4.754,5.7168 5.252,5.1597 8.804,5.791 15.141,6.2129 21.148,3.0532 11.745,-0.6104 10.199,-2.0444 15.367,-6.0991 8.752,-5.8179 5.074,-5.2485 4.551,-5.8179 5.111,-9.8071 5.481,-16.9258 2.695,-23.7393 m 586.684,-431.2924 h -34.883 l -17.799,2.5747 -12.51,5.2378 -7.15,4.8828 -4.164,4.3501 -3.744,4.8457 -4.201,8.3515 -4.506,14.6529 -2.217,20.9082 v 918.875 h -173.627 v -934.7315 l 2.197,-36.6972 5.647,-31.9678 7.675,-26.8955 8.282,-21.479 7.742,-16.0156 7.135,-11.6958 13.252,-16.191 14.703,-14.5678 10.576,-7.8413 14.445,-8.5108 19.334,-9.105 24.16,-8.436 28.657,-6.2061 32.814,-2.4155 h 68.182 v 168.0772 m 576.379,441.5991 -2.684,38.3682 -6.896,33.4067 -9.374,28.0923 -10.117,22.4248 -9.455,16.7143 -8.713,12.1988 -16.187,16.872 -17.957,15.1753 -12.92,8.168 -17.651,8.8652 -23.623,9.4844 -29.523,8.7876 -35.018,6.4648 -40.105,2.5162 -40.418,-2.5162 -35.344,-6.4648 -29.842,-8.7876 -23.908,-9.4844 -17.883,-8.8652 -13.113,-8.168 -18.273,-15.1753 -16.479,-16.872 -8.846,-12.1988 -9.576,-16.7143 -10.213,-22.4248 -9.408,-28.0923 -6.828,-33.4067 -2.473,-38.3682 v -390.0659 l 2.473,-38.6968 6.828,-33.7759 9.408,-28.4678 10.213,-22.7719 9.576,-17.0083 8.846,-12.4458 16.479,-17.2896 18.273,-15.5796 13.113,-8.3857 17.883,-9.1016 23.908,-9.7373 29.842,-9.022 35.344,-6.6372 40.418,-2.5835 40.105,2.5498 35.018,6.5513 29.523,8.9048 23.623,9.6108 17.651,8.9829 12.92,8.2774 17.957,15.3774 16.187,17.0743 8.713,12.3081 9.455,16.832 10.117,22.5517 9.374,28.2095 6.896,33.4927 2.684,38.4019 v 392.4443 m -172.834,-380.5523 -0.756,-13.4336 -1.94,-11.6806 -5.48,-17.6319 -5.11,-10.0668 -4.552,-5.8555 -5.074,-5.2608 -8.752,-5.9047 -15.368,-6.3345 -21.943,-3.1133 -21.148,3.1133 -15.141,6.3345 -8.805,5.9047 -5.25,5.2608 -4.756,5.8555 -5.336,10.0668 -5.726,17.6319 -2.025,11.6806 -0.79,13.4336 v 370.2456 l 2.815,23.6792 5.726,16.8042 5.336,9.6934 4.756,5.7168 5.25,5.1597 8.805,5.791 15.141,6.2129 21.148,3.0532 11.746,-0.6104 10.197,-2.0444 15.368,-6.0991 8.752,-5.8179 5.074,-5.2485 4.552,-5.8179 5.11,-9.8071 5.48,-16.9258 2.696,-23.7393 v -370.2456 m 809.466,593.8204 h -173.627 v -98.4756 l -6.339,11.4843 -11.727,18.1412 -10.641,14.5087 -8.861,10.8335 -7.346,7.9258 -12.17,11.0044 -12.601,9.9146 -8.377,5.3364 -10.865,5.792 -13.948,6.1963 -16.66,5.7412 -18.763,4.2236 -20.266,1.6441 -28.865,-2.6338 -25.17,-6.7666 -21.192,-9.1978 -16.937,-9.9267 -12.639,-9.2788 -9.238,-8.5494 -12.809,-15.8833 -11.533,-17.667 -6.209,-12.7856 -6.736,-17.5293 -7.209,-23.5288 -6.678,-29.4888 -4.914,-35.0849 -1.912,-40.3174 v -377.3809 l 1.912,-39.7436 4.914,-34.562 6.678,-29.0313 7.209,-23.1504 6.736,-17.2373 6.209,-12.5635 11.533,-17.3388 12.809,-15.5796 9.238,-8.3863 12.639,-9.101 16.937,-9.7373 21.192,-9.022 25.17,-6.6372 28.865,-2.5835 21.506,1.5937 19.576,4.0943 17.131,5.5654 14.166,6.0068 10.916,5.6148 8.305,5.1728 12.259,9.6109 11.666,10.664 6.893,7.6739 8.166,10.4843 9.633,14.0357 10.365,17.543 7.982,16.3862 v -200.8628 l -0.839,-13.1382 -2.155,-11.3979 -6.091,-17.1529 -5.676,-9.7534 -5.059,-5.6406 -5.629,-5.0581 -9.666,-5.6777 -16.918,-6.0909 -11.201,-2.1548 -12.877,-0.8388 -12.91,0.872 -11.287,2.2413 -17.16,6.3344 -9.895,5.9048 -5.83,5.2608 -5.262,5.8427 -5.904,9.9805 -6.334,17.3965 -2.242,11.4839 -0.871,13.1718 v 29.3345 l -172.834,-0.7929 v -29.334 l 2.717,-39.5157 6.982,-34.4521 9.49,-29.0073 10.244,-23.1822 9.575,-17.2978 8.82,-12.6436 16.389,-17.5288 18.211,-15.7817 13.146,-8.4951 17.996,-9.2193 24.129,-9.8637 30.203,-9.1392 35.891,-6.7236 41.187,-2.6167 42.629,2.6001 37.219,6.6801 31.377,9.0806 25.105,9.8003 18.756,9.1606 13.731,8.4405 19.08,15.6811 17.199,17.4273 9.258,12.5888 10.047,17.2388 10.748,23.1192 9.959,28.9487 7.328,34.4092 2.851,39.4985 v 922.8394 m -173.627,-583.5137 -1.134,-18.3589 -2.471,-14.6655 -2.51,-9.8916 -2.203,-6.2154 -4.516,-9.8374 -8.156,-11.976 -9.562,-9.9747 -7.715,-5.3066 -4.959,-2.5713 -8.092,-2.9287 -12.246,-2.8823 -15.719,-1.3223 -13.711,1.0064 -11.92,2.5859 -17.99,7.3086 -10.267,6.8135 -5.969,6.0698 -5.361,6.7764 -6.018,11.7558 -3.352,9.1778 -3.105,11.5468 -2.283,13.7954 -0.891,15.9229 v 344.8755 l 0.891,16.8086 2.283,14.644 3.105,12.3213 3.352,9.8403 6.018,12.6978 5.361,7.4199 5.969,6.6651 10.267,7.4077 17.99,7.8042 11.92,2.6479 13.711,0.8452 15.719,-1.0019 12.246,-2.8511 8.092,-3.0293 4.959,-2.7241 7.715,-5.6528 9.562,-10.313 8.156,-12.1665 4.516,-9.8565 2.203,-6.2768 2.51,-10.1094 2.471,-15.1397 1.134,-19.1879 v -342.4971 m 11.1,-110.2017 -8.945,-23.8374 -2.155,-4.4238 v 138.4629 l 11.1,-110.2017 m -11.1,595.2398 5.543,-10.045 11.106,-24.6728 -16.649,-107.8232 v 142.541 m 854.657,98.4756 h -168.869 l -109.692,-528.2593 -123.398,528.2593 h -168.869 l 229.755,-829.3096 -17.281,-83.2232 -4.23,-16.2451 -5.162,-13.6714 -5.498,-11.1259 -5.245,-8.608 -8.419,-10.5668 -6.725,-5.5865 -7.32,-4.8564 -12.584,-5.4502 -9.778,-3.0352 -12.261,-2.812 -14.602,-2.0688 -16.791,-0.8052 h -44.398 v -168.8701 h 42.812 l 35.439,1.5937 31.114,4.0943 26.367,5.5654 21.195,6.0068 15.908,5.6148 11.711,5.1728 16.432,9.6109 15.145,10.7881 8.652,7.9677 9.949,11.0576 11.371,14.98 11.713,18.9522 10.662,22.7768 8.223,26.4541 234.674,1015.5992 m -278.561,-528.2593 43.094,-184.4834 -85.625,-188.6909 -19.981,72.124 62.512,301.0503" /></g></g></g><g
           id="g70"><g
             id="g72"><path
               id="path74"
               style="fill:none;stroke:#6ec1dd;stroke-width:19.68499947;stroke-linecap:round;stroke-linejoin:round;stroke-miterlimit:10;stroke-dasharray:none;stroke-opacity:1"
               d="m 7341.3223,6273.6343 h 285.4145 v -340.9112 l -1.0937,-29.144 -2.8731,-26.7617 -4.0439,-23.9028 -4.6035,-20.5679 -4.5635,-16.7754 -4.2237,-13.1177 -7.7133,-18.7065 -15.8638,-29.5479 -12.2671,-17.082 -16.9902,-19.2271 -18.3946,-17.7661 -16.3491,-12.8344 -28.2949,-16.6153 -17.9722,-8.0805 -12.6406,-4.4249 -16.1929,-4.7802 -19.8862,-4.8233 -23.1533,-4.2363 -25.9761,-3.0103 -28.3545,-1.1455 -28.4067,1.0938 -26.1128,2.873 -23.3457,4.044 -20.106,4.6035 -16.4101,4.5635 -12.8418,4.2236 -18.3394,7.7134 -28.998,15.8638 -16.7276,12.267 -18.7881,16.9903 -17.3276,18.3945 -12.4795,16.3491 -16.0698,28.293 -7.8052,17.9419 -4.2739,12.5991 -4.6177,16.1255 -4.6587,19.7871 -4.0918,23.0156 -2.9077,25.794 -1.1059,28.1221 v 599.3696 l 1.0932,29.8681 2.8736,27.376 4.0434,24.4121 4.6035,20.9756 4.5635,17.086 4.2236,13.3427 7.7134,18.9825 15.8721,29.8999 12.2983,17.2553 17.0542,19.3921 18.4766,17.8936 16.436,12.8974 28.4654,16.6314 18.0029,8.0805 12.6079,4.4249 16.1123,4.7807 19.7427,4.8228 22.9258,4.2363 25.6464,3.0102 27.9024,1.1456 27.6304,-1.1065 25.3613,-2.9077 22.644,-4.0918 19.479,-4.6587 15.8819,-4.6172 12.416,-4.2744 17.6963,-7.8047 27.9267,-16.0781 16.1128,-12.5112 18.1016,-17.3912 16.6982,-18.871 12.0303,-16.814 15.502,-29.1748 7.5605,-18.4922 4.1646,-12.9756 4.5219,-16.5991 4.5933,-20.3589 4.0849,-23.6694 2.9874,-26.5108 1.2998,-28.8857 v -72.939 h -180.7623 l -0.7929,72.939 -1.0401,19.3486 -2.6718,16.8877 -3.6324,14.2339 -3.9204,11.3862 -3.664,8.5039 -3.376,6.2232 -6.2725,8.6445 -6.9907,7.7774 -12.0698,8.6572 -9.3989,4.7739 -11.8047,4.3701 -14.0786,3.1221 -16.2178,1.0298 -17.6777,-1.1304 -15.4493,-3.3804 -13.0371,-4.7216 -10.4399,-5.1538 -7.8057,-4.8477 -5.7197,-4.4907 -7.9634,-8.3843 -7.1704,-9.3135 -3.8369,-6.6968 -4.1387,-9.145 -4.395,-12.2378 -4.0186,-15.29 -2.8632,-18.1299 -0.9292,-20.7573 v -599.3696 l 0.9795,-17.9566 2.9926,-15.689 4.1944,-13.2363 4.5844,-10.5976 4.3164,-7.9219 4,-5.8037 7.4742,-8.0767 8.3037,-7.2842 5.9717,-3.9209 8.1547,-4.2548 10.9131,-4.5528 13.6353,-4.2178 16.1684,-3.1035 18.5132,-1.2075 18.251,1.5698 15.9722,3.5586 13.4946,4.7105 10.8184,5.0263 8.0976,4.667 5.9419,4.2769 8.2915,7.9033 7.4741,8.7583 4,6.3071 4.3164,8.6202 4.5845,11.5439 4.1943,14.4331 2.9927,17.1279 0.9795,19.6265 0.793,177.5913 -114.166,-0.793 v 165.6988" /></g></g><g
           id="g76"><g
             id="g78"><g
               id="g80"><path
                 id="path82"
                 style="fill:#6ec1dd;fill-opacity:1;fill-rule:evenodd;stroke:none"
                 d="m 22001.937,5645.7007 62.512,301.0503 43.094,-184.4834 -85.625,-188.6909 -19.981,72.124 M 8434.6172,6313.4458 v 161.5645 h 172.834 v -161.1885 l -172.834,-0.376 m 8082.7718,325.6772 v 70.5611 h 172.834 l 0.05,-70.5611 h -172.886 m 564.486,-639.0107 v 133.9863 h 35.676 v -133.9863 h -35.676 m -1522.209,0 v 133.9863 h 35.677 v -133.9863 h -35.677 m -5370.544,0 v 133.9863 h 35.677 v -133.9863 h -35.677 m -2289.6562,0 v 133.9863 h 35.6768 v -133.9863 h -35.6768 m 6195.8662,331.398 14.799,26.1152 1.85,2.6997 v -211.9561 l -16.649,183.1412 m -489.168,-598.0865 v 162.8296 l 15.064,-72.9389 -2.634,-36.0196 -2.401,-15.3252 -2.675,-13.1513 -2.621,-10.7007 -2.405,-8.3462 -2.328,-6.3477 m -2566.349,0 v 162.8296 l 15.063,-72.9389 -2.634,-36.0196 -2.4,-15.3252 -2.675,-13.1513 -2.621,-10.7007 -2.404,-8.3462 -2.329,-6.3477 m 8009.831,600.4649 10.946,27.5346 5.705,11.2959 v -146.6538 l -16.651,107.8233 m -4124.234,0 10.944,27.5346 5.705,11.2959 v -146.6538 l -16.649,107.8233 m -3395.637,0 10.945,27.5346 5.705,11.2959 v -146.6538 l -16.65,107.8233 m 9958.578,-99.895 v 142.541 l 5.543,-10.045 11.106,-24.6728 -16.649,-107.8232 m -7882.189,-232.2955 v 145.0855 h 4.757 l 11.1,-145.0855 h -15.857 m -2566.349,0 v 145.0855 h 4.756 l 11.1,-145.0855 h -15.856 m 7333.56,332.1905 10.682,27.2895 4.38,8.7627 v -144.6684 l -15.062,108.6162 m 3114.978,-580.855 v 138.4629 l 11.1,-110.2017 -8.945,-23.8374 -2.155,-4.4238 m -8526.749,645.9487 v 91.8838 l 12.685,-50.7402 -12.685,-41.1436" /></g></g></g><g
           id="g84"><g
             id="g86"><path
               id="path88"
               style="fill:none;stroke:#6ec1dd;stroke-width:19.68499947;stroke-linecap:round;stroke-linejoin:round;stroke-miterlimit:10;stroke-dasharray:none;stroke-opacity:1"
               d="m 8023.145,5640.1733 -42.8735,2.919 -37.3721,7.4995 -31.4599,10.1934 -25.1377,11.0019 -18.7539,10.2832 -13.7041,9.4751 -18.9927,17.603 -17.0972,19.5606 -9.2026,14.1235 -9.9878,19.336 -10.6861,25.9257 -9.9003,32.4576 -7.2842,38.5708 -2.835,44.2661 v 307.6133 l 2.7681,47.0341 7.1113,40.9253 9.6665,34.3936 10.4326,27.4399 9.7515,20.4405 8.9849,14.9082 16.6928,20.5942 18.5381,18.5137 13.3687,9.9653 18.2885,10.8154 24.5069,11.5708 30.6621,10.7207 36.4131,7.8872 41.7597,3.0699 42.5616,-2.919 37.0463,-7.499 31.1436,-10.1939 24.8535,-11.0019 18.5191,-10.2832 13.5112,-9.4751 18.6772,-17.603 16.793,-19.5728 9.04,-14.1528 9.8106,-19.3931 10.4961,-26.0205 9.7246,-32.5986 7.1543,-38.7676 2.7851,-44.5278 v -225.1602 h -369.4531 v 133.9863 h 202.1685 v 93.5523 l -0.9395,17.9228 -2.4135,15.6031 -3.2808,13.1191 -3.541,10.4712 -3.3096,7.8037 -3.0493,5.6948 -5.6655,7.8745 -6.2969,7.0816 -10.7818,7.9487 -8.3579,4.4263 -10.4672,4.1006 -12.4429,3.0171 -14.2857,1.1743 -13.729,-1.2583 -11.9633,-3.2325 -18.1109,-9.1357 -10.3808,-8.5166 -6.0699,-7.5879 -5.4634,-8.4297 -2.9404,-6.0844 -3.1914,-8.3287 -3.4145,-11.1655 -3.1631,-13.9756 -2.3277,-16.605 -0.9057,-19.0532 v -322.6762 l 0.9731,-16.5474 2.4995,-14.4473 3.398,-12.1801 3.667,-9.7461 6.5864,-12.6109 5.8677,-7.4077 6.5244,-6.6768 11.1816,-7.4946 8.6739,-4.1733 10.8657,-3.8667 12.9228,-2.8443 14.8423,-1.1074 13.7124,0.8555 11.9204,2.1982 17.9888,6.2124 10.2676,5.7915 5.9687,5.1592 5.3618,5.7295 6.0186,9.7803 6.4561,17.039 2.2841,11.2447 0.8892,12.893 v 17.4419 l 167.2842,-0.7924 v -14.271 l -2.751,-40.0557 -7.0684,-34.8882 -9.6074,-29.3476 -10.3701,-23.4346 -9.6924,-17.4717 -8.9306,-12.7563 -16.5909,-17.6548 -18.437,-15.8833 -13.3144,-8.5493 -18.229,-9.2789 -24.4439,-9.9267 -30.6035,-9.1978 -36.3701,-6.7666 -41.7432,-2.6338" /></g></g><g
           id="g90"><g
             id="g92"><path
               id="path94"
               style="fill:none;stroke:#6ec1dd;stroke-width:19.68499947;stroke-linecap:round;stroke-linejoin:round;stroke-miterlimit:10;stroke-dasharray:none;stroke-opacity:1"
               d="m 8638.3711,5648.1016 -37.1299,2.3823 -31.6533,6.1201 -26.0879,8.3189 -20.4336,8.9785 -14.9473,8.3921 -10.6396,7.7324 -14.1035,14.3657 -12.4444,16.0132 -6.6972,11.6455 -7.2696,16.0122 -7.7773,21.5415 -7.2061,27.0601 -5.3007,32.2754 -2.0635,37.187 v 848.3144 h 172.834 v -832.458 l 2.1562,-20.5102 4.3848,-14.5391 4.0879,-8.3784 3.6426,-4.9341 4.0507,-4.4517 6.9493,-4.9961 12.1523,-5.3598 17.2813,-2.6348 h 58.6679 v -168.0771 h -82.4531" /></g></g><g
           id="g96"><g
             id="g98"><path
               id="path100"
               style="fill:none;stroke:#6ec1dd;stroke-width:19.68499947;stroke-linecap:round;stroke-linejoin:round;stroke-miterlimit:10;stroke-dasharray:none;stroke-opacity:1"
               d="m 8356.1289,6313.2754 0.792,161.7349 h 363.9033 v -160.9419 l -364.6953,-0.793" /></g></g><g
           id="g102"><g
             id="g104"><path
               id="path106"
               style="fill:none;stroke:#6ec1dd;stroke-width:19.68499947;stroke-linecap:round;stroke-linejoin:round;stroke-miterlimit:10;stroke-dasharray:none;stroke-opacity:1"
               d="m 9072.835,5640.1733 -40.418,2.5835 -35.3438,6.6372 -29.8398,9.022 -23.9082,9.7373 -17.8838,9.1016 -13.1123,8.3857 -18.2744,15.5796 -16.4776,17.2896 -8.8466,12.4458 -9.5762,17.0083 -10.2119,22.7719 -9.4082,28.4678 -6.8281,33.7759 -2.4727,38.6968 v 390.0659 l 2.4727,38.3682 6.8281,33.4067 9.4082,28.0923 10.2119,22.4248 9.5762,16.7143 8.8466,12.1988 16.4776,16.872 18.2744,15.1753 13.1123,8.168 17.8838,8.8652 23.9082,9.4844 29.8398,8.7876 35.3438,6.4648 40.418,2.5162 40.1064,-2.5162 35.0176,-6.4648 29.5234,-8.7876 23.624,-9.4844 17.6495,-8.8652 12.9199,-8.168 17.958,-15.1753 16.1865,-16.872 8.7129,-12.1988 9.4561,-16.7143 10.1162,-22.4248 9.373,-28.0923 6.8965,-33.4067 2.6836,-38.3682 v -392.4443 l -2.6836,-38.4019 -6.8965,-33.4927 -9.373,-28.2095 -10.1162,-22.5517 -9.4561,-16.832 -8.7129,-12.3081 -16.1865,-17.0743 -17.958,-15.3774 -12.9199,-8.2774 -17.6495,-8.9829 -23.624,-9.6108 -29.5234,-8.9048 -35.0176,-6.5513 -40.1064,-2.5498" /></g></g><g
           id="g108"><g
             id="g110"><path
               id="path112"
               style="fill:none;stroke:#6ec1dd;stroke-width:19.68499947;stroke-linecap:round;stroke-linejoin:round;stroke-miterlimit:10;stroke-dasharray:none;stroke-opacity:1"
               d="m 9071.25,5801.9082 21.9443,3.1133 15.3672,6.3345 8.752,5.9047 5.0732,5.2608 4.5518,5.8555 5.1103,10.0668 5.4815,17.6319 1.9394,11.6806 0.7549,13.4336 v 370.2456 l -2.6943,23.7393 -5.4815,16.9258 -5.1103,9.8071 -4.5518,5.8179 -5.0732,5.2485 -8.752,5.8179 -15.3672,6.0991 -10.1992,2.0444 -11.7451,0.6104 -21.1484,-3.0532 -15.1397,-6.2129 -8.8056,-5.791 -5.251,-5.1597 -4.7549,-5.7168 -5.3369,-9.6934 -5.7246,-16.8042 -2.8145,-23.6792 v -370.2456 l 0.7881,-13.4336 2.0264,-11.6806 5.7246,-17.6319 5.3369,-10.0668 4.7549,-5.8555 5.251,-5.2608 8.8056,-5.9047 15.1397,-6.3345 21.1484,-3.1133" /></g></g><g
           id="g114"><g
             id="g116"><path
               id="path118"
               style="fill:none;stroke:#6ec1dd;stroke-width:19.68499947;stroke-linecap:round;stroke-linejoin:round;stroke-miterlimit:10;stroke-dasharray:none;stroke-opacity:1"
               d="m 9699.1611,5640.1733 -42.8408,2.6001 -37.2851,6.6807 -31.3438,9.0806 -25.0107,9.8003 -18.6358,9.1606 -13.5947,8.4404 -18.791,15.6807 -16.8946,17.4526 -9.0937,12.6475 -9.8701,17.3535 -10.5586,23.3076 -9.7842,29.231 -7.1973,34.8022 -2.8017,40.022 v 365.4888 l 2.8183,41.9712 7.2413,36.4804 9.8418,30.6275 10.622,24.4116 9.9287,18.168 9.1485,13.2348 16.9961,18.2471 18.8789,16.3892 13.6211,8.8217 18.6367,9.5743 24.9805,10.2426 31.2607,9.4908 37.1318,6.9819 42.5957,2.7178 42.8565,-2.751 37.3291,-7.0684 31.4013,-9.6079 25.0743,-10.3696 18.6953,-9.6924 13.6494,-8.9302 18.8916,-16.5918 17.0088,-18.4492 9.1777,-13.3437 9.9854,-18.2867 10.7177,-24.538 9.9825,-30.7442 7.4375,-36.5669 3.08,-42.0049 v -49.1543 h -171.249 v 40.4336 l -0.9228,16.8086 -2.3701,14.6441 -3.2217,12.3208 -3.4776,9.8408 -6.2461,12.6973 -5.5634,7.4204 -6.1592,6.6772 -10.4082,7.4942 -17.9971,8.04 -11.8096,2.8442 -13.4843,1.1075 -13.7452,-1.0738 -12.0068,-2.7583 -18.2324,-7.7959 -10.4951,-7.2676 -6.1709,-6.4746 -5.5645,-7.2055 -6.2451,-12.3838 -3.4775,-9.6196 -3.2227,-12.063 -2.3701,-14.3614 -0.9229,-16.5131 v -349.6324 l 0.9229,-14.5473 2.3701,-12.6397 3.2227,-10.6084 3.4775,-8.4521 6.2451,-10.8687 5.5645,-6.3091 6.1709,-5.6655 10.4951,-6.3589 18.2324,-6.8218 12.0068,-2.4135 13.7452,-0.9395 13.4843,0.9898 11.8096,2.5429 17.9971,7.187 10.4082,6.6998 6.1592,5.9687 5.5634,6.6377 6.2461,11.3823 3.4776,8.8316 3.2217,11.0654 2.3701,13.1621 0.9228,15.1211 v 38.0552 l 172.834,-1.5855 v -45.1904 l -3.0967,-40.0894 -7.4804,-34.9746 -10.0411,-29.4648 -10.7802,-23.5611 -10.045,-17.5898 -9.2324,-12.8652 -17.1094,-17.857 -19.0048,-16.0854 -13.7344,-8.6587 -18.8106,-9.3965 -25.2324,-10.0537 -31.6006,-9.3149 -37.5693,-6.8526 -43.1348,-2.6675" /></g></g><g
           id="g120"><g
             id="g122"><path
               id="path124"
               style="fill:none;stroke:#6ec1dd;stroke-width:19.68499947;stroke-linecap:round;stroke-linejoin:round;stroke-miterlimit:10;stroke-dasharray:none;stroke-opacity:1"
               d="m 10312.802,5640.1733 -42.874,2.919 -37.372,7.4995 -31.46,10.1934 -25.138,11.0019 -18.754,10.2832 -13.704,9.4751 -18.993,17.603 -17.097,19.5606 -9.203,14.1235 -9.987,19.336 -10.687,25.9257 -9.9,32.4576 -7.283,38.5708 -2.835,44.2661 v 307.6133 l 2.767,47.0341 7.112,40.9253 9.666,34.3936 10.432,27.4399 9.752,20.4405 8.986,14.9082 16.692,20.5942 18.538,18.5137 13.369,9.9653 18.288,10.8154 24.507,11.5708 30.662,10.7207 36.413,7.8872 41.76,3.0699 42.562,-2.919 37.045,-7.499 31.144,-10.1939 24.854,-11.0019 18.519,-10.2832 13.512,-9.4751 18.676,-17.603 16.794,-19.5728 9.04,-14.1528 9.81,-19.3931 10.496,-26.0205 9.725,-32.5986 7.154,-38.7676 2.785,-44.5278 v -225.1602 h -369.453 v 133.9863 h 202.168 v 93.5523 l -0.939,17.9228 -2.413,15.6031 -3.282,13.1191 -3.54,10.4712 -3.309,7.8037 -3.05,5.6948 -5.665,7.8745 -6.298,7.0816 -10.781,7.9487 -8.359,4.4263 -10.466,4.1006 -12.444,3.0171 -14.285,1.1743 -13.728,-1.2583 -11.964,-3.2325 -18.112,-9.1357 -10.381,-8.5166 -6.069,-7.5879 -5.463,-8.4297 -2.941,-6.0844 -3.192,-8.3287 -3.414,-11.1655 -3.163,-13.9756 -2.328,-16.605 -0.905,-19.0532 v -322.6762 l 0.973,-16.5474 2.5,-14.4473 3.397,-12.1801 3.668,-9.7461 6.586,-12.6109 5.867,-7.4077 6.525,-6.6768 11.182,-7.4946 8.673,-4.1733 10.866,-3.8667 12.923,-2.8443 14.843,-1.1074 13.712,0.8555 11.92,2.1982 17.989,6.2124 10.267,5.7915 5.969,5.1592 5.362,5.7295 6.018,9.7803 6.456,17.039 2.284,11.2447 0.89,12.893 v 17.4419 l 167.284,-0.7924 v -14.271 l -2.751,-40.0557 -7.068,-34.8882 -9.608,-29.3476 -10.37,-23.4346 -9.692,-17.4717 -8.931,-12.7563 -16.591,-17.6548 -18.437,-15.8833 -13.315,-8.5493 -18.228,-9.2789 -24.444,-9.9267 -30.604,-9.1978 -36.369,-6.7666 -41.743,-2.6338" /></g></g><g
           id="g126"><g
             id="g128"><path
               id="path130"
               style="fill:none;stroke:#6ec1dd;stroke-width:19.68499947;stroke-linecap:round;stroke-linejoin:round;stroke-miterlimit:10;stroke-dasharray:none;stroke-opacity:1"
               d="m 11039.815,5652.0659 v 596.1983 l -0.922,14.5644 -2.371,12.6826 -3.222,10.6665 -3.478,8.5161 -6.246,10.9815 -5.563,6.4106 -6.197,5.7666 -10.668,6.4727 -8.295,3.604 -10.408,3.3394 -12.4,2.4565 -14.269,0.9565 -12.091,-0.9565 -10.612,-2.4565 -16.211,-6.9434 -9.406,-6.4727 -5.592,-5.7666 -5.057,-6.4106 -5.678,-10.9815 -3.162,-8.5161 -2.929,-10.6665 -2.155,-12.6826 -0.839,-14.5644 h -167.284 l 2.701,40.6128 6.938,35.3676 9.432,29.7471 10.181,23.7495 9.514,17.7046 8.768,12.9243 16.287,17.8819 18.109,16.0854 13.092,8.6582 17.938,9.397 24.065,10.0532 30.146,9.3149 35.847,6.8526 41.169,2.6675 41.237,-2.6504 36.02,-6.8096 30.38,-9.2563 24.318,-9.9903 18.173,-9.3379 13.311,-8.604 18.513,-15.9839 16.693,-17.7929 8.984,-12.8994 9.752,-17.7027 10.433,-23.7807 9.666,-29.8296 7.111,-35.5215 2.769,-40.8574 v -596.1983 h -166.492" /></g></g><g
           id="g132"><g
             id="g134"><path
               id="path136"
               style="fill:none;stroke:#6ec1dd;stroke-width:19.68499947;stroke-linecap:round;stroke-linejoin:round;stroke-miterlimit:10;stroke-dasharray:none;stroke-opacity:1"
               d="m 10893.936,5640.1733 -33.778,2.4996 -29.225,6.4218 -24.433,8.729 -19.395,9.4214 -14.379,8.8057 -10.422,8.1138 -14.246,15.0737 -12.748,16.8701 -6.86,12.3799 -7.447,17.1133 -7.967,23.1176 -7.382,29.1612 -5.429,34.9365 -2.115,40.4448 2.835,47.668 7.285,41.1274 9.9,34.2896 10.685,27.1538 9.989,20.0806 9.203,14.5063 17.097,19.7212 19.116,17.603 13.999,9.4751 19.326,10.2832 26.082,11.002 32.869,10.1938 39.339,7.499 45.491,2.919 h 83.245 l 11.1,-145.0855 h -88.795 l -18.379,-1.3588 -15.824,-3.4913 -13.167,-4.7451 -10.407,-5.1216 -7.682,-4.7871 -5.536,-4.4106 -7.494,-8.1948 -6.665,-9.1978 -3.565,-6.7939 -3.842,-9.4278 -4.08,-12.7724 -3.725,-16.1592 -2.648,-19.4204 -0.845,-22.5557 0.577,-14.5137 1.958,-12.5537 2.788,-10.4907 3.067,-8.3262 5.591,-10.6411 5.046,-6.1069 5.666,-5.4634 9.926,-6.1318 17.624,-6.5777 11.791,-2.3276 13.662,-0.9058 17.281,1.1407 14.908,2.9306 12.427,3.9839 9.84,4.2998 12.53,7.7217 7.142,6.8789 6.374,7.7095 3.431,5.6743 3.722,7.8574 3.984,10.628 3.691,13.4248 2.715,16.1069 1.057,18.6738 15.063,-72.9389 -2.634,-36.0196 -2.4,-15.3252 -2.675,-13.1513 -2.621,-10.7007 -2.404,-8.3462 -4.347,-11.8486 -8.891,-18.5992 -6.914,-10.6577 -9.608,-11.8979 -10.424,-10.9117 -9.285,-7.789 -16.112,-9.8706 -10.257,-4.7749 -16.493,-5.4395 -24.666,-5.353 -31.211,-2.4561" /></g></g><g
           id="g138"><g
             id="g140"><path
               id="path142"
               style="fill:none;stroke:#6ec1dd;stroke-width:19.68499947;stroke-linecap:round;stroke-linejoin:round;stroke-miterlimit:10;stroke-dasharray:none;stroke-opacity:1"
               d="m 11372.005,5652.0659 v 822.9444 h 174.42 v -822.9444 h -174.42" /></g></g><g
           id="g144"><g
             id="g146"><path
               id="path148"
               style="fill:none;stroke:#6ec1dd;stroke-width:19.68499947;stroke-linecap:round;stroke-linejoin:round;stroke-miterlimit:10;stroke-dasharray:none;stroke-opacity:1"
               d="m 11709.745,5652.0659 v 576.3779 l -0.855,17.8389 -2.199,15.3872 -2.987,12.8262 -3.225,10.1553 -3.014,7.5083 -2.777,5.4223 -5.16,7.3687 -5.815,6.5757 -10.388,7.3813 -8.23,4.1099 -10.456,3.8081 -12.621,2.8013 -14.726,1.0903 -14.691,-1.0903 -12.535,-2.8013 -10.338,-3.8081 -8.105,-4.1099 -10.16,-7.3813 -5.614,-6.5757 -4.957,-7.4058 -2.668,-5.5107 -2.896,-7.6802 -3.098,-10.4385 -2.872,-13.249 -2.111,-15.9775 -0.822,-18.6236 -16.65,107.8233 10.945,27.5346 11.944,23.6495 11.939,19.6328 10.925,15.4843 9.158,11.4048 7.644,8.1949 12.764,11.0395 13.271,9.813 8.85,5.2822 11.507,5.7329 14.799,6.1333 17.715,5.6826 20.007,4.1807 21.674,1.627 28.588,-2.3653 24.929,-6.0771 20.993,-8.2603 16.779,-8.915 12.523,-8.3335 9.154,-7.6777 12.695,-14.2647 11.432,-15.875 6.153,-11.5029 6.679,-15.7813 7.144,-21.1943 6.62,-26.5791 4.871,-31.6421 1.895,-36.3853 v -622.3613 h -173.627" /></g></g><g
           id="g150"><g
             id="g152"><g
               id="g154"><path
                 id="path156"
                 style="fill:#6ec1dd;fill-opacity:1;fill-rule:evenodd;stroke:none"
                 d="m 12512.076,6424.2695 16.65,66.5967 v -119.1499 l -16.65,52.5532" /></g></g></g><g
           id="g158"><g
             id="g160"><path
               id="path162"
               style="fill:none;stroke:#6ec1dd;stroke-width:19.68499947;stroke-linecap:round;stroke-linejoin:round;stroke-miterlimit:10;stroke-dasharray:none;stroke-opacity:1"
               d="m 12742.786,6130.1348 217.233,674.687 h 158.562 V 5652.0659 h -156.977 v 838.8003 l 12.685,-50.7402 -182.349,-591.4414 h -97.516 l -182.348,575.5849 16.65,66.5967 v -838.8003 h -160.943 v 1152.7559 h 163.321 l 211.682,-674.687" /></g></g><g
           id="g164"><g
             id="g166"><path
               id="path168"
               style="fill:none;stroke:#6ec1dd;stroke-width:19.68499947;stroke-linecap:round;stroke-linejoin:round;stroke-miterlimit:10;stroke-dasharray:none;stroke-opacity:1"
               d="m 13606.164,5652.0659 v 596.1983 l -0.923,14.5644 -2.37,12.6826 -3.223,10.6665 -3.477,8.5161 -6.245,10.9815 -5.565,6.4106 -6.195,5.7666 -10.668,6.4727 -8.295,3.604 -10.409,3.3394 -12.399,2.4565 -14.27,0.9565 -12.091,-0.9565 -10.611,-2.4565 -16.212,-6.9434 -9.406,-6.4727 -5.591,-5.7666 -5.059,-6.4106 -5.678,-10.9815 -3.161,-8.5161 -2.929,-10.6665 -2.155,-12.6826 -0.838,-14.5644 h -167.285 l 2.701,40.6128 6.939,35.3676 9.432,29.7471 10.179,23.7495 9.516,17.7046 8.767,12.9243 16.288,17.8819 18.109,16.0854 13.092,8.6582 17.937,9.397 24.065,10.0532 30.146,9.3149 35.847,6.8526 41.17,2.6675 41.236,-2.6504 36.02,-6.8096 30.381,-9.2563 24.317,-9.9903 18.174,-9.3379 13.309,-8.604 18.514,-15.9839 16.692,-17.7929 8.986,-12.8994 9.752,-17.7027 10.432,-23.7807 9.666,-29.8296 7.112,-35.5215 2.767,-40.8574 v -596.1983 h -166.491" /></g></g><g
           id="g170"><g
             id="g172"><path
               id="path174"
               style="fill:none;stroke:#6ec1dd;stroke-width:19.68499947;stroke-linecap:round;stroke-linejoin:round;stroke-miterlimit:10;stroke-dasharray:none;stroke-opacity:1"
               d="m 13460.286,5640.1733 -33.778,2.4996 -29.227,6.4218 -24.431,8.729 -19.396,9.4214 -14.38,8.8057 -10.421,8.1138 -14.246,15.0737 -12.747,16.8701 -6.861,12.3799 -7.447,17.1133 -7.966,23.1176 -7.382,29.1612 -5.431,34.9365 -2.113,40.4448 2.835,47.668 7.284,41.1274 9.9,34.2896 10.686,27.1538 9.988,20.0806 9.202,14.5063 17.098,19.7212 19.116,17.603 13.998,9.4751 19.328,10.2832 26.082,11.002 32.869,10.1938 39.339,7.499 45.49,2.919 h 83.246 l 11.1,-145.0855 h -88.796 l -18.379,-1.3588 -15.823,-3.4913 -13.168,-4.7451 -10.407,-5.1216 -7.681,-4.7871 -5.536,-4.4106 -7.495,-8.1948 -6.665,-9.1978 -3.564,-6.7939 -3.844,-9.4278 -4.078,-12.7724 -3.726,-16.1592 -2.648,-19.4204 -0.845,-22.5557 0.577,-14.5137 1.958,-12.5537 2.789,-10.4907 3.067,-8.3262 5.591,-10.6411 5.046,-6.1069 5.665,-5.4634 9.926,-6.1318 17.624,-6.5777 11.791,-2.3276 13.661,-0.9058 17.283,1.1407 14.908,2.9306 12.427,3.9839 9.84,4.2998 12.53,7.7217 7.141,6.8789 6.374,7.7095 3.43,5.6743 3.724,7.8574 3.983,10.628 3.691,13.4248 2.715,16.1069 1.057,18.6738 15.064,-72.9389 -2.634,-36.0196 -2.401,-15.3252 -2.675,-13.1513 -2.621,-10.7007 -2.405,-8.3462 -4.345,-11.8486 -8.891,-18.5992 -6.914,-10.6577 -9.609,-11.8979 -10.423,-10.9117 -9.287,-7.789 -16.111,-9.8706 -10.257,-4.7749 -16.493,-5.4395 -24.666,-5.353 -31.21,-2.4561" /></g></g><g
           id="g176"><g
             id="g178"><path
               id="path180"
               style="fill:none;stroke:#6ec1dd;stroke-width:19.68499947;stroke-linecap:round;stroke-linejoin:round;stroke-miterlimit:10;stroke-dasharray:none;stroke-opacity:1"
               d="m 13938.354,5652.0659 v 822.9444 h 173.627 v -822.9444 h -173.627" /></g></g><g
           id="g182"><g
             id="g184"><path
               id="path186"
               style="fill:none;stroke:#6ec1dd;stroke-width:19.68499947;stroke-linecap:round;stroke-linejoin:round;stroke-miterlimit:10;stroke-dasharray:none;stroke-opacity:1"
               d="m 14323.664,6310.104 h -11.116 -5.93 -6.623 -6.804 -9.168 l -28.605,-1.8452 -24.973,-4.7407 -21.05,-6.4444 -16.843,-6.955 -12.581,-6.501 -9.209,-5.9903 -12.797,-11.1284 -11.545,-12.2925 -6.237,-8.7558 -6.795,-11.8867 -7.303,-15.834 -6.819,-19.69 -5.111,-23.2265 -2.174,-26.4444 -16.649,183.1412 14.799,26.1152 15.665,22.8574 15.352,19.315 13.861,15.4868 11.498,11.5927 9.497,8.5083 15.655,11.8755 16.214,10.7242 10.82,5.7719 14.078,6.2647 18.111,6.7021 21.692,6.21 24.515,4.5683 26.575,1.7784 V 6310.104" /></g></g><g
           id="g188"><g
             id="g190"><path
               id="path192"
               style="fill:none;stroke:#6ec1dd;stroke-width:19.68499947;stroke-linecap:round;stroke-linejoin:round;stroke-miterlimit:10;stroke-dasharray:none;stroke-opacity:1"
               d="m 14437.036,6626.438 v 173.6269 l 172.835,-0.7924 0.792,-172.0415 -173.627,-0.793" /></g></g><g
           id="g194"><g
             id="g196"><path
               id="path198"
               style="fill:none;stroke:#6ec1dd;stroke-width:19.68499947;stroke-linecap:round;stroke-linejoin:round;stroke-miterlimit:10;stroke-dasharray:none;stroke-opacity:1"
               d="m 14437.036,5652.0659 v 822.9444 h 172.835 l 0.792,-822.9444 h -173.627" /></g></g><g
           id="g200"><g
             id="g202"><path
               id="path204"
               style="fill:none;stroke:#6ec1dd;stroke-width:19.68499947;stroke-linecap:round;stroke-linejoin:round;stroke-miterlimit:10;stroke-dasharray:none;stroke-opacity:1"
               d="m 14767.642,5652.0659 v 822.9444 h 174.419 v -822.9444 h -174.419" /></g></g><g
           id="g206"><g
             id="g208"><path
               id="path210"
               style="fill:none;stroke:#6ec1dd;stroke-width:19.68499947;stroke-linecap:round;stroke-linejoin:round;stroke-miterlimit:10;stroke-dasharray:none;stroke-opacity:1"
               d="m 15105.382,5652.0659 v 576.3779 l -0.856,17.8389 -2.198,15.3872 -2.988,12.8262 -3.225,10.1553 -3.013,7.5083 -2.778,5.4223 -5.159,7.3687 -5.816,6.5757 -10.387,7.3813 -8.231,4.1099 -10.457,3.8081 -12.621,2.8013 -14.724,1.0903 -14.692,-1.0903 -12.535,-2.8013 -10.339,-3.8081 -8.104,-4.1099 -10.16,-7.3813 -5.614,-6.5757 -4.957,-7.4058 -2.669,-5.5107 -2.895,-7.6802 -3.099,-10.4385 -2.87,-13.249 -2.112,-15.9775 -0.822,-18.6236 -16.649,107.8233 10.944,27.5346 11.945,23.6495 11.937,19.6328 10.926,15.4843 9.158,11.4048 7.644,8.1949 12.764,11.0395 13.271,9.813 8.85,5.2822 11.507,5.7329 14.798,6.1333 17.716,5.6826 20.007,4.1807 21.674,1.627 28.588,-2.3653 24.929,-6.0771 20.993,-8.2603 16.78,-8.915 12.521,-8.3335 9.155,-7.6777 12.695,-14.2647 11.433,-15.875 6.153,-11.5029 6.677,-15.7813 7.146,-21.1943 6.619,-26.5791 4.871,-31.6421 1.896,-36.3853 v -622.3613 h -173.627" /></g></g><g
           id="g212"><g
             id="g214"><path
               id="path216"
               style="fill:none;stroke:#6ec1dd;stroke-width:19.68499947;stroke-linecap:round;stroke-linejoin:round;stroke-miterlimit:10;stroke-dasharray:none;stroke-opacity:1"
               d="m 15683.346,5640.1733 -42.874,2.919 -37.372,7.4995 -31.46,10.1934 -25.138,11.0019 -18.754,10.2832 -13.704,9.4751 -18.993,17.603 -17.097,19.5606 -9.203,14.1235 -9.987,19.336 -10.687,25.9257 -9.9,32.4576 -7.283,38.5708 -2.836,44.2661 v 307.6133 l 2.768,47.0341 7.112,40.9253 9.666,34.3936 10.432,27.4399 9.752,20.4405 8.985,14.9082 16.693,20.5942 18.538,18.5137 13.368,9.9653 18.289,10.8154 24.507,11.5708 30.662,10.7207 36.413,7.8872 41.76,3.0699 42.562,-2.919 37.045,-7.499 31.144,-10.1939 24.853,-11.0019 18.52,-10.2832 13.511,-9.4751 18.677,-17.603 16.793,-19.5728 9.04,-14.1528 9.81,-19.3931 10.496,-26.0205 9.726,-32.5986 7.154,-38.7676 2.784,-44.5278 v -225.1602 h -369.452 v 133.9863 h 202.168 v 93.5523 l -0.939,17.9228 -2.414,15.6031 -3.281,13.1191 -3.541,10.4712 -3.309,7.8037 -3.049,5.6948 -5.666,7.8745 -6.297,7.0816 -10.781,7.9487 -8.359,4.4263 -10.467,4.1006 -12.443,3.0171 -14.285,1.1743 -13.729,-1.2583 -11.964,-3.2325 -18.111,-9.1357 -10.381,-8.5166 -6.069,-7.5879 -5.464,-8.4297 -2.94,-6.0844 -3.192,-8.3287 -3.414,-11.1655 -3.163,-13.9756 -2.328,-16.605 -0.905,-19.0532 v -322.6762 l 0.972,-16.5474 2.5,-14.4473 3.398,-12.1801 3.668,-9.7461 6.586,-12.6109 5.867,-7.4077 6.524,-6.6768 11.182,-7.4946 8.674,-4.1733 10.866,-3.8667 12.923,-2.8443 14.843,-1.1074 13.712,0.8555 11.919,2.1982 17.99,6.2124 10.267,5.7915 5.969,5.1592 5.362,5.7295 6.018,9.7803 6.456,17.039 2.284,11.2447 0.89,12.893 v 17.4419 l 167.284,-0.7924 v -14.271 l -2.751,-40.0557 -7.068,-34.8882 -9.608,-29.3476 -10.37,-23.4346 -9.692,-17.4717 -8.931,-12.7563 -16.591,-17.6548 -18.437,-15.8833 -13.315,-8.5493 -18.228,-9.2789 -24.445,-9.9267 -30.603,-9.1978 -36.369,-6.7666 -41.743,-2.6338" /></g></g><g
           id="g218"><g
             id="g220"><path
               id="path222"
               style="fill:none;stroke:#6ec1dd;stroke-width:19.68499947;stroke-linecap:round;stroke-linejoin:round;stroke-miterlimit:10;stroke-dasharray:none;stroke-opacity:1"
               d="m 16517.389,5652.0659 v 1057.6182 h 172.834 l 0.793,-1057.6182 h -173.627" /></g></g><g
           id="g224"><g
             id="g226"><path
               id="path228"
               style="fill:none;stroke:#6ec1dd;stroke-width:19.68499947;stroke-linecap:round;stroke-linejoin:round;stroke-miterlimit:10;stroke-dasharray:none;stroke-opacity:1"
               d="m 16319.185,6639.123 0.792,165.6988 h 568.451 V 6639.123 h -569.243" /></g></g><g
           id="g230"><g
             id="g232"><path
               id="path234"
               style="fill:none;stroke:#6ec1dd;stroke-width:19.68499947;stroke-linecap:round;stroke-linejoin:round;stroke-miterlimit:10;stroke-dasharray:none;stroke-opacity:1"
               d="m 17205.555,5640.1733 -42.875,2.919 -37.371,7.4995 -31.461,10.1934 -25.137,11.0019 -18.754,10.2832 -13.705,9.4751 -18.992,17.603 -17.098,19.5606 -9.201,14.1235 -9.988,19.336 -10.686,25.9257 -9.9,32.4576 -7.285,38.5708 -2.834,44.2661 v 307.6133 l 2.767,47.0341 7.111,40.9253 9.666,34.3936 10.434,27.4399 9.75,20.4405 8.986,14.9082 16.692,20.5942 18.539,18.5137 13.369,9.9653 18.287,10.8154 24.508,11.5708 30.662,10.7207 36.412,7.8872 41.76,3.0699 42.562,-2.919 37.047,-7.499 31.143,-10.1939 24.853,-11.0019 18.52,-10.2832 13.512,-9.4751 18.675,-17.603 16.795,-19.5728 9.039,-14.1528 9.811,-19.3931 10.496,-26.0205 9.725,-32.5986 7.154,-38.7676 2.785,-44.5278 v -225.1602 h -369.453 v 133.9863 h 202.168 v 93.5523 l -0.94,17.9228 -2.414,15.6031 -3.279,13.1191 -3.541,10.4712 -3.31,7.8037 -3.049,5.6948 -5.666,7.8745 -6.297,7.0816 -10.781,7.9487 -8.358,4.4263 -10.469,4.1006 -12.441,3.0171 -14.287,1.1743 -13.729,-1.2583 -11.963,-3.2325 -18.111,-9.1357 -10.381,-8.5166 -6.07,-7.5879 -5.463,-8.4297 -2.939,-6.0844 -3.192,-8.3287 -3.414,-11.1655 -3.164,-13.9756 -2.328,-16.605 -0.906,-19.0532 v -322.6762 l 0.974,-16.5474 2.498,-14.4473 3.399,-12.1801 3.668,-9.7461 6.586,-12.6109 5.867,-7.4077 6.525,-6.6768 11.182,-7.4946 8.674,-4.1733 10.865,-3.8667 12.922,-2.8443 14.844,-1.1074 13.711,0.8555 11.921,2.1982 17.989,6.2124 10.267,5.7915 5.969,5.1592 5.361,5.7295 6.02,9.7803 6.455,17.039 2.285,11.2447 0.889,12.893 v 17.4419 l 167.285,-0.7924 v -14.271 l -2.752,-40.0557 -7.068,-34.8882 -9.608,-29.3476 -10.369,-23.4346 -9.693,-17.4717 -8.93,-12.7563 -16.592,-17.6548 -18.437,-15.8833 -13.315,-8.5493 -18.228,-9.2789 -24.444,-9.9267 -30.603,-9.1978 -36.371,-6.7666 -41.742,-2.6338" /></g></g><g
           id="g236"><g
             id="g238"><path
               id="path240"
               style="fill:none;stroke:#6ec1dd;stroke-width:19.68499947;stroke-linecap:round;stroke-linejoin:round;stroke-miterlimit:10;stroke-dasharray:none;stroke-opacity:1"
               d="m 17839.809,5640.1733 -42.84,2.6001 -37.287,6.6807 -31.342,9.0806 -25.012,9.8003 -18.637,9.1606 -13.593,8.4404 -18.791,15.6807 -16.895,17.4526 -9.094,12.6475 -9.869,17.3535 -10.56,23.3076 -9.784,29.231 -7.197,34.8022 -2.801,40.022 v 365.4888 l 2.817,41.9712 7.242,36.4804 9.842,30.6275 10.623,24.4116 9.928,18.168 9.148,13.2348 16.996,18.2471 18.879,16.3892 13.621,8.8217 18.637,9.5743 24.98,10.2426 31.26,9.4908 37.133,6.9819 42.596,2.7178 42.857,-2.751 37.328,-7.0684 31.402,-9.6079 25.075,-10.3696 18.693,-9.6924 13.65,-8.9302 18.891,-16.5918 17.01,-18.4492 9.178,-13.3437 9.986,-18.2867 10.717,-24.538 9.982,-30.7442 7.438,-36.5669 3.08,-42.0049 v -49.1543 h -171.248 v 40.4336 l -0.924,16.8086 -2.371,14.6441 -3.221,12.3208 -3.479,9.8408 -6.246,12.6973 -5.562,7.4204 -6.16,6.6772 -10.407,7.4942 -17.998,8.04 -11.81,2.8442 -13.485,1.1075 -13.744,-1.0738 -12.007,-2.7583 -18.233,-7.7959 -10.494,-7.2676 -6.172,-6.4746 -5.562,-7.2055 -6.246,-12.3838 -3.479,-9.6196 -3.221,-12.063 -2.371,-14.3614 -0.922,-16.5131 v -349.6324 l 0.922,-14.5473 2.371,-12.6397 3.221,-10.6084 3.479,-8.4521 6.246,-10.8687 5.562,-6.3091 6.172,-5.6655 10.494,-6.3589 18.233,-6.8218 12.007,-2.4135 13.744,-0.9395 13.485,0.9898 11.81,2.5429 17.998,7.187 10.407,6.6998 6.16,5.9687 5.562,6.6377 6.246,11.3823 3.479,8.8316 3.221,11.0654 2.371,13.1621 0.924,15.1211 v 38.0552 l 172.834,-1.5855 v -45.1904 l -3.098,-40.0894 -7.481,-34.9746 -10.041,-29.4648 -10.781,-23.5611 -10.045,-17.5898 -9.232,-12.8652 -17.11,-17.857 -19.003,-16.0854 -13.735,-8.6587 -18.81,-9.3965 -25.233,-10.0537 -31.601,-9.3149 -37.569,-6.8526 -43.134,-2.6675" /></g></g><g
           id="g242"><g
             id="g244"><path
               id="path246"
               style="fill:none;stroke:#6ec1dd;stroke-width:19.68499947;stroke-linecap:round;stroke-linejoin:round;stroke-miterlimit:10;stroke-dasharray:none;stroke-opacity:1"
               d="m 18214.81,5652.0659 v 1152.7559 h 173.627 V 5652.0659 h -173.627" /></g></g><g
           id="g248"><g
             id="g250"><path
               id="path252"
               style="fill:none;stroke:#6ec1dd;stroke-width:19.68499947;stroke-linecap:round;stroke-linejoin:round;stroke-miterlimit:10;stroke-dasharray:none;stroke-opacity:1"
               d="m 18552.551,5652.0659 v 573.9995 l -0.856,18.1006 -2.197,15.584 -2.988,12.9668 -3.225,10.25 -3.014,7.5654 -2.777,5.4517 -5.16,7.3813 -5.816,6.5757 -10.387,7.3809 -8.231,4.1103 -10.457,3.8076 -12.621,2.8018 -14.724,1.0903 -14.709,-1.1074 -12.577,-2.8442 -10.398,-3.8667 -8.168,-4.1734 -10.273,-7.4946 -5.715,-6.6767 -5.059,-7.4825 -2.722,-5.5063 -2.956,-7.6245 -3.16,-10.313 -2.929,-13.0254 -2.157,-15.6275 -0.838,-18.1171 -15.062,108.6162 10.682,27.2895 11.748,23.4961 11.797,19.5503 10.83,15.4536 9.101,11.4063 7.615,8.2197 12.75,11.1284 13.272,9.9146 8.849,5.3364 11.508,5.792 14.799,6.1963 17.715,5.7412 20.008,4.2236 21.674,1.6441 28.587,-2.3316 24.928,-5.9912 20.994,-8.1431 16.78,-8.7885 12.521,-8.2149 9.154,-7.5693 12.696,-14.062 11.431,-15.6978 6.155,-11.4526 6.677,-15.7774 7.145,-21.2573 6.621,-26.7436 4.869,-31.9493 1.897,-36.875 v -622.3613 h -173.627" /></g></g><g
           id="g254"><g
             id="g256"><path
               id="path258"
               style="fill:none;stroke:#6ec1dd;stroke-width:19.68499947;stroke-linecap:round;stroke-linejoin:round;stroke-miterlimit:10;stroke-dasharray:none;stroke-opacity:1"
               d="m 18891.877,5652.0659 v 822.9444 h 174.42 v -822.9444 h -174.42" /></g></g><g
           id="g260"><g
             id="g262"><path
               id="path264"
               style="fill:none;stroke:#6ec1dd;stroke-width:19.68499947;stroke-linecap:round;stroke-linejoin:round;stroke-miterlimit:10;stroke-dasharray:none;stroke-opacity:1"
               d="m 19229.617,5652.0659 v 576.3779 l -0.855,17.8389 -2.2,15.3872 -2.986,12.8262 -3.224,10.1553 -3.016,7.5083 -2.777,5.4223 -5.159,7.3687 -5.816,6.5757 -10.387,7.3813 -8.232,4.1099 -10.455,3.8081 -12.621,2.8013 -14.725,1.0903 -14.691,-1.0903 -12.536,-2.8013 -10.339,-3.8081 -8.104,-4.1099 -10.16,-7.3813 -5.613,-6.5757 -4.957,-7.4058 -2.668,-5.5107 -2.897,-7.6802 -3.097,-10.4385 -2.872,-13.249 -2.111,-15.9775 -0.822,-18.6236 -16.651,107.8233 10.946,27.5346 11.943,23.6495 11.94,19.6328 10.923,15.4843 9.159,11.4048 7.644,8.1949 12.764,11.0395 13.271,9.813 8.85,5.2822 11.508,5.7329 14.799,6.1333 17.714,5.6826 20.008,4.1807 21.672,1.627 28.59,-2.3653 24.928,-6.0771 20.994,-8.2603 16.779,-8.915 12.522,-8.3335 9.154,-7.6777 12.695,-14.2647 11.432,-15.875 6.154,-11.5029 6.678,-15.7813 7.144,-21.1943 6.621,-26.5791 4.87,-31.6421 1.896,-36.3853 v -622.3613 h -173.627" /></g></g><g
           id="g266"><g
             id="g268"><path
               id="path270"
               style="fill:none;stroke:#6ec1dd;stroke-width:19.68499947;stroke-linecap:round;stroke-linejoin:round;stroke-miterlimit:10;stroke-dasharray:none;stroke-opacity:1"
               d="m 19794.894,5640.1733 -40.417,2.5835 -35.342,6.6372 -29.842,9.022 -23.908,9.7373 -17.883,9.1016 -13.113,8.3857 -18.274,15.5796 -16.478,17.2896 -8.846,12.4458 -9.576,17.0083 -10.213,22.7719 -9.408,28.4678 -6.828,33.7759 -2.473,38.6968 v 390.0659 l 2.473,38.3682 6.828,33.4067 9.408,28.0923 10.213,22.4248 9.576,16.7143 8.846,12.1988 16.478,16.872 18.274,15.1753 13.113,8.168 17.883,8.8652 23.908,9.4844 29.842,8.7876 35.342,6.4648 40.417,2.5162 40.108,-2.5162 35.017,-6.4648 29.524,-8.7876 23.623,-9.4844 17.65,-8.8652 12.92,-8.168 17.957,-15.1753 16.188,-16.872 8.713,-12.1988 9.455,-16.7143 10.117,-22.4248 9.373,-28.0923 6.896,-33.4067 2.684,-38.3682 v -392.4443 l -2.684,-38.4019 -6.896,-33.4927 -9.373,-28.2095 -10.117,-22.5517 -9.455,-16.832 -8.713,-12.3081 -16.188,-17.0743 -17.957,-15.3774 -12.92,-8.2774 -17.65,-8.9829 -23.623,-9.6108 -29.524,-8.9048 -35.017,-6.5513 -40.108,-2.5498" /></g></g><g
           id="g272"><g
             id="g274"><path
               id="path276"
               style="fill:none;stroke:#6ec1dd;stroke-width:19.68499947;stroke-linecap:round;stroke-linejoin:round;stroke-miterlimit:10;stroke-dasharray:none;stroke-opacity:1"
               d="m 19793.31,5801.9082 21.944,3.1133 15.367,6.3345 8.752,5.9047 5.074,5.2608 4.551,5.8555 5.111,10.0668 5.481,17.6319 1.939,11.6806 0.756,13.4336 v 370.2456 l -2.695,23.7393 -5.481,16.9258 -5.111,9.8071 -4.551,5.8179 -5.074,5.2485 -8.752,5.8179 -15.367,6.0991 -10.199,2.0444 -11.745,0.6104 -21.148,-3.0532 -15.141,-6.2129 -8.804,-5.791 -5.252,-5.1597 -4.754,-5.7168 -5.338,-9.6934 -5.725,-16.8042 -2.814,-23.6792 v -370.2456 l 0.789,-13.4336 2.025,-11.6806 5.725,-17.6319 5.338,-10.0668 4.754,-5.8555 5.252,-5.2608 8.804,-5.9047 15.141,-6.3345 21.148,-3.1133" /></g></g><g
           id="g278"><g
             id="g280"><path
               id="path282"
               style="fill:none;stroke:#6ec1dd;stroke-width:19.68499947;stroke-linecap:round;stroke-linejoin:round;stroke-miterlimit:10;stroke-dasharray:none;stroke-opacity:1"
               d="m 20357.795,6804.8218 v -918.875 l 2.217,-20.9082 4.506,-14.6529 4.201,-8.3515 3.744,-4.8457 4.164,-4.3501 7.15,-4.8828 12.51,-5.2378 17.799,-2.5747 h 34.883 v -168.0772 h -68.182 l -32.814,2.4155 -28.657,6.2061 -24.16,8.436 -19.334,9.105 -14.445,8.5108 -10.576,7.8413 -14.703,14.5678 -13.252,16.191 -7.135,11.6958 -7.742,16.0156 -8.282,21.479 -7.675,26.8955 -5.647,31.9678 -2.197,36.6972 v 934.7315 h 173.627" /></g></g><g
           id="g284"><g
             id="g286"><path
               id="path288"
               style="fill:none;stroke:#6ec1dd;stroke-width:19.68499947;stroke-linecap:round;stroke-linejoin:round;stroke-miterlimit:10;stroke-dasharray:none;stroke-opacity:1"
               d="m 20785.125,5640.1733 -40.418,2.5835 -35.344,6.6372 -29.842,9.022 -23.908,9.7373 -17.883,9.1016 -13.113,8.3857 -18.273,15.5796 -16.479,17.2896 -8.846,12.4458 -9.576,17.0083 -10.213,22.7719 -9.408,28.4678 -6.828,33.7759 -2.473,38.6968 v 390.0659 l 2.473,38.3682 6.828,33.4067 9.408,28.0923 10.213,22.4248 9.576,16.7143 8.846,12.1988 16.479,16.872 18.273,15.1753 13.113,8.168 17.883,8.8652 23.908,9.4844 29.842,8.7876 35.344,6.4648 40.418,2.5162 40.105,-2.5162 35.018,-6.4648 29.523,-8.7876 23.623,-9.4844 17.651,-8.8652 12.92,-8.168 17.957,-15.1753 16.187,-16.872 8.713,-12.1988 9.455,-16.7143 10.117,-22.4248 9.374,-28.0923 6.896,-33.4067 2.684,-38.3682 v -392.4443 l -2.684,-38.4019 -6.896,-33.4927 -9.374,-28.2095 -10.117,-22.5517 -9.455,-16.832 -8.713,-12.3081 -16.187,-17.0743 -17.957,-15.3774 -12.92,-8.2774 -17.651,-8.9829 -23.623,-9.6108 -29.523,-8.9048 -35.018,-6.5513 -40.105,-2.5498" /></g></g><g
           id="g290"><g
             id="g292"><path
               id="path294"
               style="fill:none;stroke:#6ec1dd;stroke-width:19.68499947;stroke-linecap:round;stroke-linejoin:round;stroke-miterlimit:10;stroke-dasharray:none;stroke-opacity:1"
               d="m 20783.539,5801.9082 21.943,3.1133 15.368,6.3345 8.752,5.9047 5.074,5.2608 4.552,5.8555 5.11,10.0668 5.48,17.6319 1.94,11.6806 0.756,13.4336 v 370.2456 l -2.696,23.7393 -5.48,16.9258 -5.11,9.8071 -4.552,5.8179 -5.074,5.2485 -8.752,5.8179 -15.368,6.0991 -10.197,2.0444 -11.746,0.6104 -21.148,-3.0532 -15.141,-6.2129 -8.805,-5.791 -5.25,-5.1597 -4.756,-5.7168 -5.336,-9.6934 -5.726,-16.8042 -2.815,-23.6792 v -370.2456 l 0.79,-13.4336 2.025,-11.6806 5.726,-17.6319 5.336,-10.0668 4.756,-5.8555 5.25,-5.2608 8.805,-5.9047 15.141,-6.3345 21.148,-3.1133" /></g></g><g
           id="g296"><g
             id="g298"><path
               id="path300"
               style="fill:none;stroke:#6ec1dd;stroke-width:19.68499947;stroke-linecap:round;stroke-linejoin:round;stroke-miterlimit:10;stroke-dasharray:none;stroke-opacity:1"
               d="m 21406.693,5317.4971 -41.187,2.6167 -35.891,6.7236 -30.203,9.1392 -24.129,9.8637 -17.996,9.2193 -13.146,8.4951 -18.211,15.7817 -16.389,17.5288 -8.82,12.6436 -9.575,17.2978 -10.244,23.1822 -9.49,29.0073 -6.982,34.4521 -2.717,39.5157 v 29.334 l 172.834,0.7929 v -29.3345 l 0.871,-13.1718 2.242,-11.4839 6.334,-17.3965 5.904,-9.9805 5.262,-5.8427 5.83,-5.2608 9.895,-5.9048 17.16,-6.3344 11.287,-2.2413 12.91,-0.872 12.877,0.8388 11.201,2.1548 16.918,6.0909 9.666,5.6777 5.629,5.0581 5.059,5.6406 5.676,9.7534 6.091,17.1529 2.155,11.3979 0.839,13.1382 v 922.8394 h 173.627 v -922.8394 l -2.851,-39.4985 -7.328,-34.4092 -9.959,-28.9487 -10.748,-23.1192 -10.047,-17.2388 -9.258,-12.5888 -17.199,-17.4273 -19.08,-15.6811 -13.731,-8.4405 -18.756,-9.1606 -25.105,-9.8003 -31.377,-9.0806 -37.219,-6.6801 -42.629,-2.6001" /></g></g><g
           id="g302"><g
             id="g304"><path
               id="path306"
               style="fill:none;stroke:#6ec1dd;stroke-width:19.68499947;stroke-linecap:round;stroke-linejoin:round;stroke-miterlimit:10;stroke-dasharray:none;stroke-opacity:1"
               d="m 21329.789,5638.5879 -28.865,2.5835 -25.17,6.6372 -21.192,9.022 -16.937,9.7373 -12.639,9.101 -9.238,8.3863 -12.809,15.5796 -11.533,17.3388 -6.209,12.5635 -6.736,17.2373 -7.209,23.1504 -6.678,29.0313 -4.914,34.562 -1.912,39.7436 v 377.3809 l 1.912,40.3174 4.914,35.0849 6.678,29.4888 7.209,23.5288 6.736,17.5293 6.209,12.7856 11.533,17.667 12.809,15.8833 9.238,8.5494 12.639,9.2788 16.937,9.9267 21.192,9.1978 25.17,6.7666 28.865,2.6338 20.266,-1.6441 18.763,-4.2236 16.66,-5.7412 13.948,-6.1963 10.865,-5.792 8.377,-5.3364 12.601,-9.9146 12.17,-11.0044 7.346,-7.9258 8.861,-10.8335 10.641,-14.5087 11.727,-18.1412 11.882,-21.5293 11.106,-24.6728 -16.649,-107.8232 -1.134,19.1879 -2.471,15.1397 -2.51,10.1094 -2.203,6.2768 -4.516,9.8565 -8.156,12.1665 -9.562,10.313 -7.715,5.6528 -4.959,2.7241 -8.092,3.0293 -12.246,2.8511 -15.719,1.0019 -13.711,-0.8452 -11.92,-2.6479 -17.99,-7.8042 -10.267,-7.4077 -5.969,-6.6651 -5.361,-7.4199 -6.018,-12.6978 -3.352,-9.8403 -3.105,-12.3213 -2.283,-14.644 -0.891,-16.8086 v -344.8755 l 0.891,-15.9229 2.283,-13.7954 3.105,-11.5468 3.352,-9.1778 6.018,-11.7558 5.361,-6.7764 5.969,-6.0698 10.267,-6.8135 17.99,-7.3086 11.92,-2.5859 13.711,-1.0064 15.719,1.3223 12.246,2.8823 8.092,2.9287 4.959,2.5713 7.715,5.3066 9.562,9.9747 8.156,11.976 4.516,9.8374 2.203,6.2154 2.51,9.8916 2.471,14.6655 1.134,18.3589 11.1,-110.2017 -8.945,-23.8374 -10.137,-20.81 -10.365,-17.543 -9.633,-14.0357 -8.166,-10.4843 -6.893,-7.6739 -11.666,-10.664 -12.259,-9.6109 -8.305,-5.1728 -10.916,-5.6148 -14.166,-6.0068 -17.131,-5.5654 -19.576,-4.0943 -21.506,-1.5937" /></g></g><g
           id="g308"><g
             id="g310"><path
               id="path312"
               style="fill:none;stroke:#6ec1dd;stroke-width:19.68499947;stroke-linecap:round;stroke-linejoin:round;stroke-miterlimit:10;stroke-dasharray:none;stroke-opacity:1"
               d="m 22174.141,6475.0103 h 168.869 l -234.674,-1015.5992 -8.223,-26.4541 -10.662,-22.7768 -11.713,-18.9522 -11.371,-14.98 -9.949,-11.0576 -8.652,-7.9677 -15.145,-10.7881 -16.432,-9.6109 -11.711,-5.1728 -15.908,-5.6148 -21.195,-6.0068 -26.367,-5.5654 -31.114,-4.0943 -35.439,-1.5937 h -42.812 v 168.8701 h 44.398 l 16.791,0.8052 14.602,2.0688 12.261,2.812 9.778,3.0352 12.584,5.4502 7.32,4.8564 6.725,5.5865 8.419,10.5668 5.245,8.608 5.498,11.1259 5.162,13.6714 4.23,16.2451 189.485,912.5328" /></g></g><g
           id="g314"><g
             id="g316"><path
               id="path318"
               style="fill:none;stroke:#6ec1dd;stroke-width:19.68499947;stroke-linecap:round;stroke-linejoin:round;stroke-miterlimit:10;stroke-dasharray:none;stroke-opacity:1"
               d="m 22021.918,5573.5767 -249.736,901.4336 h 168.869 l 166.492,-712.7427 -85.625,-188.6909" /></g></g></g></g></g></svg>