<?xml version="1.0" encoding="UTF-8" standalone="no"?>
<svg
   xmlns:dc="http://purl.org/dc/elements/1.1/"
   xmlns:cc="http://creativecommons.org/ns#"
   xmlns:rdf="http://www.w3.org/1999/02/22-rdf-syntax-ns#"
   xmlns:svg="http://www.w3.org/2000/svg"
   xmlns="http://www.w3.org/2000/svg"
   viewBox="0 0 1122.5197 793.70081"
   height="793.70081"
   width="1122.5197"
   xml:space="preserve"
   id="svg2"
   version="1.1"><metadata
     id="metadata8"><rdf:RDF><cc:Work
         rdf:about=""><dc:format>image/svg+xml</dc:format><dc:type
           rdf:resource="http://purl.org/dc/dcmitype/StillImage" /></cc:Work></rdf:RDF></metadata><defs
     id="defs6"><clipPath
       id="clipPath18"
       clipPathUnits="userSpaceOnUse"><path
         id="path16"
         d="M 0,0 H 23385.827 V 16535.433 H 0 V 0" /></clipPath></defs><g
     transform="matrix(0.048,0,0,-0.048,0,793.7008)"
     id="g10"><g
       id="g12"><g
         clip-path="url(#clipPath18)"
         id="g14"><g
           id="g20"><g
             id="g22"><g
               id="g24"><path
                 id="path26"
                 style="fill:#006edd;fill-opacity:1;fill-rule:evenodd;stroke:none"
                 d="m 6056.8223,9169.0771 4188.8277,-1094.2602 6673.535,1743.3481 -14.556,44.0284 -14.92,43.9062 -15.283,43.7822 -15.641,43.6543 -16.002,43.5239 -16.361,43.39 -16.717,43.254 -17.074,43.114 -17.428,42.973 -17.781,42.827 -18.135,42.68 -18.486,42.528 -18.836,42.374 -19.186,42.218 -19.533,42.058 -19.877,41.895 -20.225,41.73 -20.566,41.562 -20.908,41.391 -21.25,41.217 -21.588,41.039 -21.926,40.862 -22.263,40.679 -22.596,40.494 -22.932,40.305 -23.262,40.117 -23.591,39.922 -23.92,39.726 -24.247,39.528 -24.572,39.327 -24.896,39.123 -25.218,38.916 -25.537,38.707 -25.855,38.495 -26.173,38.28 -26.488,38.063 -26.799,37.844 -27.112,37.621 -27.42,37.397 -27.728,37.169 -28.033,36.939 -28.337,36.706 -28.64,36.472 -28.938,36.234 -29.237,35.995 -29.532,35.752 -29.826,35.508 -30.118,35.26 -30.407,35.011 -30.696,34.759 -30.981,34.504 -31.264,34.248 -31.546,33.989 -31.825,33.728 -32.102,33.464 -32.376,33.198 -32.65,32.93 -32.92,32.66 -33.188,32.387 -33.454,32.112 -33.718,31.836 -33.979,31.556 -34.238,31.275 -34.495,30.991 -34.749,30.707 -35.002,30.418 -35.251,30.129 -35.498,29.837 -35.743,29.544 -35.986,29.247 -36.224,28.95 -36.463,28.651 -36.698,28.349 -36.931,28.044 -37.16,27.74 -37.388,27.432 -37.613,27.123 -37.835,26.812 -38.056,26.499 -38.271,26.184 -38.488,25.868 -38.698,25.549 -38.909,25.23 -39.114,24.908 -39.32,24.584 -39.52,24.26 -39.719,23.932 -39.915,23.604 -40.108,23.274 -40.299,22.944 -40.487,22.609 -40.672,22.276 -40.855,21.938 -41.033,21.602 -41.21,21.261 -41.385,20.922 -41.555,20.58 -41.724,20.237 -41.889,19.891 -42.052,19.545 -42.211,19.198 -42.369,18.85 -42.522,18.499 -42.674,18.148 -42.821,17.795 -42.968,17.443 -43.109,17.087 -43.248,16.73 -43.386,16.373 -43.519,16.016 -43.649,15.656 -43.777,15.295 -43.902,14.935 -44.023,14.571 -44.143,14.207 -44.257,13.844 -44.371,13.478 -44.479,13.111 -44.587,12.745 -44.689,12.375 -44.792,12.008 -44.888,11.638 -44.983,11.267 -45.073,10.895 -45.163,10.525 -45.247,10.15 -45.33,9.777 -45.408,9.404 -45.486,9.028 -45.557,8.653 -45.627,8.278 -45.695,7.9 -45.757,7.523 -45.819,7.147 -45.876,6.767 -45.929,6.39 -45.981,6.011 -46.029,5.631 -46.074,5.251 -46.116,4.871 -46.154,4.491 -46.189,4.109 -46.223,3.73 -46.251,3.348 -46.277,2.965 -46.3,2.585 -46.32,2.202 -46.336,1.822 -46.35,1.437 -46.36,1.057 -46.368,0.674 -46.371,0.291 -46.372,-0.09 -46.37,-0.473 -46.364,-0.856 -46.356,-1.237 -46.343,-1.621 -46.329,-2.003 -46.312,-2.383 -46.289,-2.767 -46.266,-3.147 -46.237,-3.53 -46.207,-3.91 -46.174,-4.291 -46.135,-4.672 -46.096,-5.051 -46.054,-5.432 -46.006,-5.812 -45.957,-6.191 -45.905,-6.569 -45.849,-6.948 -45.79,-7.326 -45.727,-7.703 -45.663,-8.079 -45.595,-8.456 -45.524,-8.832 -45.448,-9.207 -45.372,-9.581 -45.291,-9.955 -45.207,-10.328 -45.121,-10.702 -45.03,-11.072 -44.939,-11.443 -44.842,-11.814 -44.743,-12.183 -44.641,-12.551 -44.5365,-12.919 -44.4287,-13.286 -44.3164,-13.653 -44.2031,-14.016 -44.086,-14.381 -43.9658,-14.744 -43.8428,-15.105 -43.7168,-15.468 -43.5878,-15.826 -43.4561,-16.187 -43.3203,-16.543 -43.1826,-16.9 -43.042,-17.256 -42.8985,-17.611 -42.7519,-17.963 -42.6016,-18.315 -42.4492,-18.666 -42.2949,-19.015 -42.1358,-19.364 -41.9746,-19.71 -41.8105,-20.056 -41.6445,-20.4 -41.4747,-20.742 -41.3017,-21.084 -41.127,-21.424 -40.9482,-21.762 -40.7676,-22.099 -40.584,-22.434 -40.3984,-22.768 -40.209,-23.101 -40.0166,-23.431 -39.8223,-23.761 -39.625,-24.088 -39.4248,-24.415 -39.2216,-24.738 -39.0176,-25.061 -38.8086,-25.382 -38.5986,-25.701 -38.3848,-26.019 -38.1699,-26.334 -37.9502,-26.648 -37.7305,-26.96 -37.5059,-27.27 -37.2802,-27.579 -37.0508,-27.884 -36.8203,-28.191 -36.5865,-28.492 -36.35,-28.793 -36.1119,-29.092 -35.8701,-29.388 -35.6269,-29.684 -35.3809,-29.976 -35.1328,-30.266 -34.8818,-30.556 -34.6285,-30.843 -34.373,-31.127 -34.1152,-31.408 -33.855,-31.689 -33.5928,-31.968 -33.3276,-32.243 -33.0611,-32.518 -32.7915,-32.788 -32.52,-33.058 -32.2466,-33.325 -31.9702,-33.59 -31.6924,-33.852 -31.4121,-34.112 -31.1299,-34.37 -30.8452,-34.626 -30.5591,-34.879 -30.27,-35.13 -29.979,-35.378 -29.687,-35.624 -29.3916,-35.868 -29.0952,-36.109 -28.7964,-36.347 -28.4956,-36.584 -28.1929,-36.818 -27.8886,-37.049 -27.5816,-37.277 -27.2739,-37.504 -26.9634,-37.727 -26.6514,-37.949 -26.3379,-38.167 -26.0219,-38.382 -25.7041,-38.596 -25.3858,-38.807 -25.0644,-39.015 -24.7422,-39.22 -24.4175,-39.423 -24.0918,-39.622 -23.7641,-39.82 -23.4351,-40.015 -23.1045,-40.207 -22.772,-40.396 -22.438,-40.582 -22.103,-40.765 -21.7656,-40.947 -21.4273,-41.124 -21.0878,-41.301 -20.7461,-41.473 -20.4039,-41.642 -20.059,-41.809 -19.7144,-41.973 -19.3672,-42.134 -19.019,-42.292 -18.6699,-42.448 -18.3189,-42.6 -17.9673,-42.75 -17.6142,-42.897 -17.2598,-43.041 -16.9043,-43.181 -16.5474,-43.319 -16.1899,-43.454 -15.8306,-43.5869 -15.4712,-43.7149 -15.1098,-43.8418 -14.7481,-43.9648 -14.3847,-44.084 -14.021,-44.2021 -13.6558,-44.3155 -13.29,-44.4267 -12.9229,-44.5352 -12.5556,-44.6406 -12.1871,-44.7422 -11.8173,-44.8408 -11.4478,-44.9375 -11.0762,-45.0293 -10.705,-45.1201 -10.3326,-45.2061 -9.9589,-45.29 -9.5855,-45.3711 -9.2109,-45.4483 m 11139.4197,-1094.2602 -0.209,48.4355 -0.625,48.4322 -1.043,48.4248 -1.461,48.414 -1.877,48.3995 -2.293,48.3818 -2.711,48.3594 -3.127,48.3349 -3.543,48.3067 -3.957,48.2744 -4.375,48.2373 -4.791,48.1992 -5.203,48.1553 -5.621,48.1084 -6.033,48.0586 -6.447,48.0058 -6.86,47.9473 -2896.907,-1460.8721 -1032.038,-4740.3286 44.236,13.6355 44.123,13.9993 44.007,14.3618 43.886,14.7236 43.764,15.0845 43.638,15.4441 43.51,15.803 43.378,16.1604 43.243,16.5168 43.106,16.8726 42.965,17.2265 42.823,17.5799 42.677,17.9316 42.527,18.2822 42.375,18.6319 42.221,18.98 42.062,19.3266 41.903,19.6726 41.739,20.0166 41.572,20.3596 41.404,20.7012 41.232,21.0413 41.057,21.3799 40.88,21.7172 40.7,22.0528 40.517,22.3872 40.331,22.7202 40.143,23.051 39.952,23.3809 39.758,23.709 39.561,24.0354 39.362,24.3603 39.161,24.6834 38.956,25.0048 38.748,25.325 38.539,25.6428 38.327,25.9593 38.111,26.2739 37.894,26.5866 37.674,26.8978 37.451,27.2067 37.226,27.5144 36.998,27.8199 36.768,28.1233 36.535,28.425 36.3,28.7249 36.062,29.0227 35.823,29.3186 35.58,29.6125 35.334,29.9043 35.088,30.1941 34.837,30.4822 34.586,30.7676 34.331,31.0515 34.074,31.3327 33.815,31.6123 33.554,31.8897 33.29,32.1648 33.024,32.4377 32.756,32.7085 32.486,32.9771 32.214,33.2431 31.938,33.5074 31.661,33.769 31.383,34.0283 31.101,34.2857 30.819,34.5405 30.532,34.7935 30.245,35.0429 29.956,35.291 29.664,35.5367 29.371,35.7793 29.075,36.02 28.778,36.2578 28.478,36.4936 28.177,36.7271 27.874,36.9575 27.568,37.1861 27.262,37.4111 26.952,37.6348 26.643,37.8554 26.329,38.0728 26.015,38.289 25.699,38.5015 25.382,38.7114 25.061,38.9195 24.741,39.1245 24.417,39.3266 24.093,39.5264 23.768,39.7231 23.437,39.9175 23.112,40.1094 22.777,40.2983 22.447,40.4839 22.112,40.6675 21.777,40.8486 21.439,41.0259 21.102,41.2012 20.762,41.3735 20.42,41.543 20.078,41.71 19.732,41.8735 19.389,42.0347 19.041,42.1923 18.693,42.3482 18.346,42.5005 17.992,42.6504 17.643,42.7964 17.289,42.9409 16.935,43.081 16.58,43.2193 16.225,43.3545 15.865,43.4863 15.508,43.6157 15.148,43.7417 14.788,43.8647 14.425,43.9854 14.065,44.1025 13.699,44.2168 13.336,44.3277 12.971,44.4365 12.603,44.5415 12.236,44.6436 11.87,44.7431 11.5,44.8389 11.13,44.9326 10.762,45.0225 10.389,45.1093 10.017,45.1934 9.647,45.2744 9.271,45.3521 8.901,45.4272 8.523,45.4985 8.151,45.5674 7.775,45.6333 7.398,45.6953 7.022,45.7544 6.644,45.8111 6.27,45.8642 5.889,45.9141 5.513,45.9614 5.133,46.0049 4.754,46.0454 4.377,46.083 3.996,46.1177 3.615,46.1489 3.237,46.1773 2.855,46.2026 2.477,46.2241 2.095,46.2427 1.713,46.2588 1.334,46.2715 0.953,46.2807 0.571,46.2867 0.191,46.29 M 11572.786,6089.8037 10245.65,5420.5464 8918.5146,6089.8037 V 3117.187 l 41.3956,-21.9416 41.5781,-21.5962 41.7558,-21.2488 41.9317,-20.9004 42.1045,-20.5503 42.2734,-20.1987 42.4404,-19.8457 42.6055,-19.4915 42.7656,-19.1359 42.9229,-18.7791 43.0791,-18.4207 43.2305,-18.061 43.3789,-17.7004 43.5254,-17.3384 43.6679,-16.9751 43.8086,-16.6106 43.9453,-16.2451 44.0791,-15.8784 44.209,-15.5108 44.3379,-15.1418 44.4619,-14.7717 44.583,-14.4009 44.7022,-14.0291 44.8174,-13.656 44.9297,-13.2822 45.038,-12.9075 45.146,-12.5317 45.247,-12.1551 45.346,-11.7778 45.445,-11.3996 45.537,-11.0206 45.627,-10.6408 45.714,-10.2603 45.798,-9.8791 45.879,-9.4971 45.956,-9.1145 46.032,-8.7314 46.101,-8.3477 46.17,-7.9631 46.235,-7.5784 46.296,-7.1926 46.355,-6.8069 46.41,-6.4204 46.461,-6.0337 46.511,-5.6463 46.555,-5.2585 46.598,-4.8704 46.637,-4.4821 46.672,-4.0933 46.705,-3.7043 46.734,-3.3152 46.761,-2.9258 46.782,-2.5359 46.803,-2.1462 46.818,-1.7561 46.832,-1.366 46.842,-0.9758 46.848,-0.5855 46.851,-0.1953 v 3638.4421 m -5320.6449,1344.6172 -280.6396,141.523 4.3232,-46.3662 4.707,-46.3291 5.0904,-46.2881 5.4736,-46.2447 5.8564,-46.1972 6.2388,-46.148 6.6206,-46.0942 7.002,-46.0376 7.3828,-45.9785 7.7637,-45.9155 8.1435,-45.8497 8.523,-45.7807 8.9018,-45.7085 9.2798,-45.6333 9.6572,-45.5552 10.0347,-45.4731 10.4106,-45.3887 10.7857,-45.3013 11.1611,-45.2099 11.5347,-45.1163 11.9082,-45.019 12.2803,-44.9189 12.6518,-44.8155 13.023,-44.7094 13.3921,-44.6001 13.7617,-44.4873 14.1289,-44.3721 14.4961,-44.2534 14.8623,-44.1324 15.227,-44.0073 15.5909,-43.8799 15.9541,-43.749 16.3154,-43.6157 16.6763,-43.479 17.0356,-43.3394 17.394,-43.1967 17.751,-43.0513 18.107,-42.9028 18.4614,-42.7515 18.8149,-42.5972 19.167,-42.4399 19.5181,-42.2798 19.8672,-42.1162 20.2153,-41.9507 20.562,-41.7817 20.9072,-41.6104 21.251,-41.4355 21.5938,-41.2579 21.9345,-41.0781 22.274,-40.895 22.6118,-40.709 22.9477,-40.52 23.2832,-40.3291 23.6158,-40.1348 -485.8316,2231.5088" /></g></g></g><g
           id="g28"><g
             id="g30"><g
               id="g32"><path
                 id="path34"
                 style="fill:#808080;fill-opacity:1;fill-rule:evenodd;stroke:none"
                 d="m 10245.65,8074.8169 -4188.8277,1094.2602 -9.1172,-47.0058 -8.7168,-47.0811 -8.3154,-47.1543 -7.9136,-47.2236 -7.5113,-47.2891 -7.1084,-47.3515 -6.705,-47.4102 -6.3008,-47.4648 -5.897,-47.5176 -5.4917,-47.5664 -5.0864,-47.6104 -4.6812,-47.6523 -4.2754,-47.6914 -3.8686,-47.7246 -3.4624,-47.7569 -3.0557,-47.7841 -2.6489,-47.8086 -2.2412,-47.8291 -1.8345,-47.8477 -1.4267,-47.8603 -1.0191,-47.8706 -0.6118,-47.8785 -0.2036,-47.8813 0.2217,-49.9522 0.6655,-49.9487 1.1094,-49.9404 1.5527,-49.9287 1.9966,-49.9131 2.4394,-49.8936 2.8829,-49.8696 3.3251,-49.8423 3.7681,-49.8105 4.2105,-49.7749 280.6396,-141.523 485.8316,-2231.5088 23.8022,-39.6972 24.1274,-39.4995 24.4522,-39.2998 24.7749,-39.0972 25.0952,-38.8921 25.415,-38.6846 25.7325,-38.4736 26.0483,-38.2603 26.3623,-38.0449 26.6743,-37.8266 26.9854,-37.606 27.2934,-37.3823 27.6001,-37.1563 27.9053,-36.9282 28.2085,-36.6968 28.5093,-36.4638 28.8086,-36.2276 29.1054,-35.9897 29.4009,-35.7486 29.6944,-35.5053 29.9853,-35.2598 30.2744,-35.0122 30.562,-34.7612 30.8467,-34.5088 31.1299,-34.2539 31.4106,-33.9961 31.6895,-33.7368 31.9663,-33.4747 32.2402,-33.2104 32.5127,-32.9439 32.7832,-32.6752 33.0503,-32.4043 33.3164,-32.1311 33.5796,-31.8558 33.8404,-31.5783 34.0996,-31.2989 34.3559,-31.017 34.6099,-30.7332 34.8618,-30.4473 35.1113,-30.1594 35.3579,-29.8694 35.6031,-29.5771 35.8452,-29.2832 36.0849,-28.9873 36.3223,-28.6892 36.5571,-28.3892 36.7896,-28.0874 37.02,-27.7837 37.2471,-27.478 37.4717,-27.1707 37.6943,-26.8611 37.9141,-26.55 38.1308,-26.2371 38.3467,-25.9223 38.5576,-25.6057 38.7676,-25.2876 38.9746,-24.9678 39.1787,-24.646 39.3799,-24.3228 39.5791,-23.9978 39.7744,-23.6711 39.9688,-23.343 40.1591,-23.0132 40.3477,-22.6819 40.5322,-22.3491 40.7158,-22.0147 V 6089.8027 L 10245.65,5420.5454 v 2654.2715" /></g></g></g></g></g></g></svg>