<?xml version="1.0" encoding="UTF-8" standalone="no"?>
<svg
   width="50.000038pt"
   height="50.008369pt"
   viewBox="0 0 50.000039 50.008369"
   version="1.1"
   id="svg34"
   xmlns="http://www.w3.org/2000/svg"
   xmlns:svg="http://www.w3.org/2000/svg">
  <defs
     id="defs34" />
  <path
     fill-rule="nonzero"
     fill="#ffffff"
     fill-opacity="1"
     d="m 36.85544,27.852118 12.8789,-6.49219 c -0.207,-1.39453 -0.5273,-2.76562 -0.9648,-4.10156 l -29.668,7.75 v 11.79688 l 5.8985,-2.97266 v 16.17578 c 2.4609,0 4.9101,-0.36719 7.2656,-1.08203 z m 0,0"
     id="path2" />
  <path
     fill-rule="nonzero"
     fill="#808080"
     fill-opacity="1"
     d="M 19.10154,25.008368 0.48046,20.141178 C 0.16015,21.742748 0,23.375558 0,25.008368 c 0,0.73828 0.0351,1.48047 0.10156,2.21485 l 1.24609,0.6289 2.16016,9.92188 c 2.32422,3.91797 5.67578,7.125 9.69143,9.27343 v -13.21484 l 5.9023,2.97266 z m 0,0"
     id="path3" />
  <path
     fill-rule="nonzero"
     fill="#2776bb"
     fill-opacity="1"
     d="m 0.48046,20.141178 18.62108,4.86719 29.668,-7.7539 C 44.48824,4.1294678 30.37894,-3.0424122 17.25004,1.2388378 8.65234,4.0435278 2.23828,11.270088 0.48046,20.141178"
     id="path4" />
  <path
     fill-rule="nonzero"
     fill="#2776bb"
     fill-opacity="1"
     d="m 50.00004,25.008368 c 0,-1.22265 -0.09,-2.4414 -0.2657,-3.64844 l -12.8789,6.49219 -4.5898,21.07422 c 10.5351,-3.19922 17.7344,-12.91016 17.7344,-23.91797"
     id="path5" />
  <path
     fill-rule="nonzero"
     fill="#2776bb"
     fill-opacity="1"
     d="m 25.00004,33.832588 -5.8985,2.97266 -5.9023,-2.97266 v 13.21484 c 3.6328,1.94141 7.6836,2.96094 11.8008,2.96094 z m 0,0"
     id="path6" />
  <path
     fill-rule="nonzero"
     fill="#2776bb"
     fill-opacity="1"
     d="m 1.34765,27.852118 -1.25,-0.6289 c 0.33203,3.73046 1.5,7.33203 3.41016,10.55078 z m 0,0"
     id="path7" />
</svg>
